<?xml version="1.0" standalone="no"?>
 <!DOCTYPE svg PUBLIC "-//W3C//DTD SVG 1.1//EN" 
 "http://www.w3.org/Graphics/SVG/1.1/DTD/svg11.dtd"> 
<svg
  xmlns:svg="http://www.w3.org/2000/svg"
  xmlns="http://www.w3.org/2000/svg"
  xmlns:xlink="http://www.w3.org/1999/xlink"
  version="1.1"
  width="60.0964mm" height="40.0812mm" viewBox="0.0000 0.0000 60.0964 40.0812">
<title>SVG Image created as kicad_back_270.svg date 2026/03/20 21:27:53 </title>
  <desc>Image generated by PCBNEW </desc>
<g style="fill:#000000; fill-opacity:1.0000;stroke:#000000; stroke-opacity:1.0000;
stroke-linecap:round; stroke-linejoin:round;"
 transform="translate(0 0) scale(1 1)">
<path style="fill:none; 
stroke:#AFAFAF; stroke-width:0.1500; stroke-opacity:1; 
stroke-linecap:round; stroke-linejoin:round;fill:none"
d="M 23.4780,26.2280
26.4780,26.2280
26.4780,27.7280
23.4780,27.7280
Z" /> 
<path style="fill:none; 
stroke:#AFAFAF; stroke-width:0.1500; stroke-opacity:1; 
stroke-linecap:round; stroke-linejoin:round;fill:none"
d="M 35.7610,24.9330
38.7610,24.9330
38.7610,26.4330
35.7610,26.4330
Z" /> 
<path style="fill:none; 
stroke:#AFAFAF; stroke-width:0.1500; stroke-opacity:1; 
stroke-linecap:round; stroke-linejoin:round;fill:none"
d="M 35.7610,10.5110
38.7610,10.5110
38.7610,12.0110
35.7610,12.0110
Z" /> 
<path style="fill:none; 
stroke:#AFAFAF; stroke-width:0.1500; stroke-opacity:1; 
stroke-linecap:round; stroke-linejoin:round;fill:none"
d="M 20.7930,7.5430
23.7930,7.5430
23.7930,9.0430
20.7930,9.0430
Z" /> 
<path style="fill:none; 
stroke:#585D84; stroke-width:0.1500; stroke-opacity:1; 
stroke-linecap:round; stroke-linejoin:round;fill:none"
d="M 20.0500,12.0500
28.0500,12.0500
28.0500,18.0500
20.0500,18.0500
Z" /> 
</g>
<g style="fill:none; 
stroke:#F2EDA1; stroke-width:0.1000; stroke-opacity:1; 
stroke-linecap:round; stroke-linejoin:round;">
<text x="24.9780" y="27.3780"
textLength="7.0352" font-size="1.0667" lengthAdjust="spacingAndGlyphs"
text-anchor="middle" opacity="0" stroke-opacity="0">r_north F 0</text>
<g class="stroked-text"><desc>r_north F 0</desc>
<path d="M21.7209 27.3429
L21.7209 26.8096
" />
<path d="M21.7209 26.9619
L21.7590 26.8858
" />
<path d="M21.7590 26.8858
L21.7970 26.8477
" />
<path d="M21.7970 26.8477
L21.8732 26.8096
" />
<path d="M21.8732 26.8096
L21.9494 26.8096
" />
<path d="M22.0256 27.4191
L22.6351 27.4191
" />
<path d="M22.8256 26.8096
L22.8256 27.3429
" />
<path d="M22.8256 26.8858
L22.8637 26.8477
" />
<path d="M22.8637 26.8477
L22.9399 26.8096
" />
<path d="M22.9399 26.8096
L23.0542 26.8096
" />
<path d="M23.0542 26.8096
L23.1304 26.8477
" />
<path d="M23.1304 26.8477
L23.1685 26.9238
" />
<path d="M23.1685 26.9238
L23.1685 27.3429
" />
<path d="M23.6637 27.3429
L23.5875 27.3048
" />
<path d="M23.5875 27.3048
L23.5494 27.2667
" />
<path d="M23.5494 27.2667
L23.5113 27.1905
" />
<path d="M23.5113 27.1905
L23.5113 26.9619
" />
<path d="M23.5113 26.9619
L23.5494 26.8858
" />
<path d="M23.5494 26.8858
L23.5875 26.8477
" />
<path d="M23.5875 26.8477
L23.6637 26.8096
" />
<path d="M23.6637 26.8096
L23.7780 26.8096
" />
<path d="M23.7780 26.8096
L23.8542 26.8477
" />
<path d="M23.8542 26.8477
L23.8923 26.8858
" />
<path d="M23.8923 26.8858
L23.9304 26.9619
" />
<path d="M23.9304 26.9619
L23.9304 27.1905
" />
<path d="M23.9304 27.1905
L23.8923 27.2667
" />
<path d="M23.8923 27.2667
L23.8542 27.3048
" />
<path d="M23.8542 27.3048
L23.7780 27.3429
" />
<path d="M23.7780 27.3429
L23.6637 27.3429
" />
<path d="M24.2732 27.3429
L24.2732 26.8096
" />
<path d="M24.2732 26.9619
L24.3113 26.8858
" />
<path d="M24.3113 26.8858
L24.3494 26.8477
" />
<path d="M24.3494 26.8477
L24.4256 26.8096
" />
<path d="M24.4256 26.8096
L24.5018 26.8096
" />
<path d="M24.6542 26.8096
L24.9590 26.8096
" />
<path d="M24.7685 26.5429
L24.7685 27.2286
" />
<path d="M24.7685 27.2286
L24.8066 27.3048
" />
<path d="M24.8066 27.3048
L24.8828 27.3429
" />
<path d="M24.8828 27.3429
L24.9590 27.3429
" />
<path d="M25.2256 27.3429
L25.2256 26.5429
" />
<path d="M25.5685 27.3429
L25.5685 26.9238
" />
<path d="M25.5685 26.9238
L25.5304 26.8477
" />
<path d="M25.5304 26.8477
L25.4542 26.8096
" />
<path d="M25.4542 26.8096
L25.3399 26.8096
" />
<path d="M25.3399 26.8096
L25.2637 26.8477
" />
<path d="M25.2637 26.8477
L25.2256 26.8858
" />
<path d="M26.8256 26.9238
L26.5590 26.9238
" />
<path d="M26.5590 27.3429
L26.5590 26.5429
" />
<path d="M26.5590 26.5429
L26.9399 26.5429
" />
<path d="M28.0066 26.5429
L28.0828 26.5429
" />
<path d="M28.0828 26.5429
L28.1590 26.5810
" />
<path d="M28.1590 26.5810
L28.1970 26.6191
" />
<path d="M28.1970 26.6191
L28.2351 26.6953
" />
<path d="M28.2351 26.6953
L28.2732 26.8477
" />
<path d="M28.2732 26.8477
L28.2732 27.0381
" />
<path d="M28.2732 27.0381
L28.2351 27.1905
" />
<path d="M28.2351 27.1905
L28.1970 27.2667
" />
<path d="M28.1970 27.2667
L28.1590 27.3048
" />
<path d="M28.1590 27.3048
L28.0828 27.3429
" />
<path d="M28.0828 27.3429
L28.0066 27.3429
" />
<path d="M28.0066 27.3429
L27.9304 27.3048
" />
<path d="M27.9304 27.3048
L27.8923 27.2667
" />
<path d="M27.8923 27.2667
L27.8542 27.1905
" />
<path d="M27.8542 27.1905
L27.8161 27.0381
" />
<path d="M27.8161 27.0381
L27.8161 26.8477
" />
<path d="M27.8161 26.8477
L27.8542 26.6953
" />
<path d="M27.8542 26.6953
L27.8923 26.6191
" />
<path d="M27.8923 26.6191
L27.9304 26.5810
" />
<path d="M27.9304 26.5810
L28.0066 26.5429
" />
</g><circle cx="23.4780" cy="26.9780" r="0.3000" /> 
<circle cx="26.4780" cy="26.9780" r="0.3000" /> 
<text x="37.2610" y="26.0830"
textLength="6.4257" font-size="1.0667" lengthAdjust="spacingAndGlyphs"
text-anchor="middle" opacity="0" stroke-opacity="0">r_east F 0</text>
<g class="stroked-text"><desc>r_east F 0</desc>
<path d="M34.3086 26.0479
L34.3086 25.5146
" />
<path d="M34.3086 25.6669
L34.3467 25.5908
" />
<path d="M34.3467 25.5908
L34.3848 25.5527
" />
<path d="M34.3848 25.5527
L34.4610 25.5146
" />
<path d="M34.4610 25.5146
L34.5372 25.5146
" />
<path d="M34.6134 26.1241
L35.2229 26.1241
" />
<path d="M35.7181 26.0098
L35.6420 26.0479
" />
<path d="M35.6420 26.0479
L35.4896 26.0479
" />
<path d="M35.4896 26.0479
L35.4134 26.0098
" />
<path d="M35.4134 26.0098
L35.3753 25.9336
" />
<path d="M35.3753 25.9336
L35.3753 25.6288
" />
<path d="M35.3753 25.6288
L35.4134 25.5527
" />
<path d="M35.4134 25.5527
L35.4896 25.5146
" />
<path d="M35.4896 25.5146
L35.6420 25.5146
" />
<path d="M35.6420 25.5146
L35.7181 25.5527
" />
<path d="M35.7181 25.5527
L35.7562 25.6288
" />
<path d="M35.7562 25.6288
L35.7562 25.7050
" />
<path d="M35.7562 25.7050
L35.3753 25.7812
" />
<path d="M36.4420 26.0479
L36.4420 25.6288
" />
<path d="M36.4420 25.6288
L36.4039 25.5527
" />
<path d="M36.4039 25.5527
L36.3277 25.5146
" />
<path d="M36.3277 25.5146
L36.1753 25.5146
" />
<path d="M36.1753 25.5146
L36.0991 25.5527
" />
<path d="M36.4420 26.0098
L36.3658 26.0479
" />
<path d="M36.3658 26.0479
L36.1753 26.0479
" />
<path d="M36.1753 26.0479
L36.0991 26.0098
" />
<path d="M36.0991 26.0098
L36.0610 25.9336
" />
<path d="M36.0610 25.9336
L36.0610 25.8574
" />
<path d="M36.0610 25.8574
L36.0991 25.7812
" />
<path d="M36.0991 25.7812
L36.1753 25.7431
" />
<path d="M36.1753 25.7431
L36.3658 25.7431
" />
<path d="M36.3658 25.7431
L36.4420 25.7050
" />
<path d="M36.7848 26.0098
L36.8610 26.0479
" />
<path d="M36.8610 26.0479
L37.0134 26.0479
" />
<path d="M37.0134 26.0479
L37.0896 26.0098
" />
<path d="M37.0896 26.0098
L37.1277 25.9336
" />
<path d="M37.1277 25.9336
L37.1277 25.8955
" />
<path d="M37.1277 25.8955
L37.0896 25.8193
" />
<path d="M37.0896 25.8193
L37.0134 25.7812
" />
<path d="M37.0134 25.7812
L36.8991 25.7812
" />
<path d="M36.8991 25.7812
L36.8229 25.7431
" />
<path d="M36.8229 25.7431
L36.7848 25.6669
" />
<path d="M36.7848 25.6669
L36.7848 25.6288
" />
<path d="M36.7848 25.6288
L36.8229 25.5527
" />
<path d="M36.8229 25.5527
L36.8991 25.5146
" />
<path d="M36.8991 25.5146
L37.0134 25.5146
" />
<path d="M37.0134 25.5146
L37.0896 25.5527
" />
<path d="M37.3562 25.5146
L37.6610 25.5146
" />
<path d="M37.4705 25.2479
L37.4705 25.9336
" />
<path d="M37.4705 25.9336
L37.5086 26.0098
" />
<path d="M37.5086 26.0098
L37.5848 26.0479
" />
<path d="M37.5848 26.0479
L37.6610 26.0479
" />
<path d="M38.8039 25.6288
L38.5372 25.6288
" />
<path d="M38.5372 26.0479
L38.5372 25.2479
" />
<path d="M38.5372 25.2479
L38.9181 25.2479
" />
<path d="M39.9848 25.2479
L40.0610 25.2479
" />
<path d="M40.0610 25.2479
L40.1372 25.2860
" />
<path d="M40.1372 25.2860
L40.1753 25.3241
" />
<path d="M40.1753 25.3241
L40.2134 25.4003
" />
<path d="M40.2134 25.4003
L40.2515 25.5527
" />
<path d="M40.2515 25.5527
L40.2515 25.7431
" />
<path d="M40.2515 25.7431
L40.2134 25.8955
" />
<path d="M40.2134 25.8955
L40.1753 25.9717
" />
<path d="M40.1753 25.9717
L40.1372 26.0098
" />
<path d="M40.1372 26.0098
L40.0610 26.0479
" />
<path d="M40.0610 26.0479
L39.9848 26.0479
" />
<path d="M39.9848 26.0479
L39.9086 26.0098
" />
<path d="M39.9086 26.0098
L39.8705 25.9717
" />
<path d="M39.8705 25.9717
L39.8324 25.8955
" />
<path d="M39.8324 25.8955
L39.7943 25.7431
" />
<path d="M39.7943 25.7431
L39.7943 25.5527
" />
<path d="M39.7943 25.5527
L39.8324 25.4003
" />
<path d="M39.8324 25.4003
L39.8705 25.3241
" />
<path d="M39.8705 25.3241
L39.9086 25.2860
" />
<path d="M39.9086 25.2860
L39.9848 25.2479
" />
</g><circle cx="35.7610" cy="25.6830" r="0.3000" /> 
<circle cx="38.7610" cy="25.6830" r="0.3000" /> 
<text x="37.2610" y="11.6610"
textLength="7.1876" font-size="1.0667" lengthAdjust="spacingAndGlyphs"
text-anchor="middle" opacity="0" stroke-opacity="0">r_south F 0</text>
<g class="stroked-text"><desc>r_south F 0</desc>
<path d="M33.9277 11.6259
L33.9277 11.0926
" />
<path d="M33.9277 11.2449
L33.9658 11.1688
" />
<path d="M33.9658 11.1688
L34.0039 11.1307
" />
<path d="M34.0039 11.1307
L34.0800 11.0926
" />
<path d="M34.0800 11.0926
L34.1562 11.0926
" />
<path d="M34.2324 11.7021
L34.8420 11.7021
" />
<path d="M34.9943 11.5878
L35.0705 11.6259
" />
<path d="M35.0705 11.6259
L35.2229 11.6259
" />
<path d="M35.2229 11.6259
L35.2991 11.5878
" />
<path d="M35.2991 11.5878
L35.3372 11.5116
" />
<path d="M35.3372 11.5116
L35.3372 11.4735
" />
<path d="M35.3372 11.4735
L35.2991 11.3973
" />
<path d="M35.2991 11.3973
L35.2229 11.3592
" />
<path d="M35.2229 11.3592
L35.1086 11.3592
" />
<path d="M35.1086 11.3592
L35.0324 11.3211
" />
<path d="M35.0324 11.3211
L34.9943 11.2449
" />
<path d="M34.9943 11.2449
L34.9943 11.2068
" />
<path d="M34.9943 11.2068
L35.0324 11.1307
" />
<path d="M35.0324 11.1307
L35.1086 11.0926
" />
<path d="M35.1086 11.0926
L35.2229 11.0926
" />
<path d="M35.2229 11.0926
L35.2991 11.1307
" />
<path d="M35.7943 11.6259
L35.7181 11.5878
" />
<path d="M35.7181 11.5878
L35.6800 11.5497
" />
<path d="M35.6800 11.5497
L35.6420 11.4735
" />
<path d="M35.6420 11.4735
L35.6420 11.2449
" />
<path d="M35.6420 11.2449
L35.6800 11.1688
" />
<path d="M35.6800 11.1688
L35.7181 11.1307
" />
<path d="M35.7181 11.1307
L35.7943 11.0926
" />
<path d="M35.7943 11.0926
L35.9086 11.0926
" />
<path d="M35.9086 11.0926
L35.9848 11.1307
" />
<path d="M35.9848 11.1307
L36.0229 11.1688
" />
<path d="M36.0229 11.1688
L36.0610 11.2449
" />
<path d="M36.0610 11.2449
L36.0610 11.4735
" />
<path d="M36.0610 11.4735
L36.0229 11.5497
" />
<path d="M36.0229 11.5497
L35.9848 11.5878
" />
<path d="M35.9848 11.5878
L35.9086 11.6259
" />
<path d="M35.9086 11.6259
L35.7943 11.6259
" />
<path d="M36.7467 11.0926
L36.7467 11.6259
" />
<path d="M36.4039 11.0926
L36.4039 11.5116
" />
<path d="M36.4039 11.5116
L36.4420 11.5878
" />
<path d="M36.4420 11.5878
L36.5181 11.6259
" />
<path d="M36.5181 11.6259
L36.6324 11.6259
" />
<path d="M36.6324 11.6259
L36.7086 11.5878
" />
<path d="M36.7086 11.5878
L36.7467 11.5497
" />
<path d="M37.0134 11.0926
L37.3181 11.0926
" />
<path d="M37.1277 10.8259
L37.1277 11.5116
" />
<path d="M37.1277 11.5116
L37.1658 11.5878
" />
<path d="M37.1658 11.5878
L37.2420 11.6259
" />
<path d="M37.2420 11.6259
L37.3181 11.6259
" />
<path d="M37.5848 11.6259
L37.5848 10.8259
" />
<path d="M37.9277 11.6259
L37.9277 11.2068
" />
<path d="M37.9277 11.2068
L37.8896 11.1307
" />
<path d="M37.8896 11.1307
L37.8134 11.0926
" />
<path d="M37.8134 11.0926
L37.6991 11.0926
" />
<path d="M37.6991 11.0926
L37.6229 11.1307
" />
<path d="M37.6229 11.1307
L37.5848 11.1688
" />
<path d="M39.1848 11.2068
L38.9181 11.2068
" />
<path d="M38.9181 11.6259
L38.9181 10.8259
" />
<path d="M38.9181 10.8259
L39.2991 10.8259
" />
<path d="M40.3658 10.8259
L40.4420 10.8259
" />
<path d="M40.4420 10.8259
L40.5181 10.8640
" />
<path d="M40.5181 10.8640
L40.5562 10.9021
" />
<path d="M40.5562 10.9021
L40.5943 10.9783
" />
<path d="M40.5943 10.9783
L40.6324 11.1307
" />
<path d="M40.6324 11.1307
L40.6324 11.3211
" />
<path d="M40.6324 11.3211
L40.5943 11.4735
" />
<path d="M40.5943 11.4735
L40.5562 11.5497
" />
<path d="M40.5562 11.5497
L40.5181 11.5878
" />
<path d="M40.5181 11.5878
L40.4420 11.6259
" />
<path d="M40.4420 11.6259
L40.3658 11.6259
" />
<path d="M40.3658 11.6259
L40.2896 11.5878
" />
<path d="M40.2896 11.5878
L40.2515 11.5497
" />
<path d="M40.2515 11.5497
L40.2134 11.4735
" />
<path d="M40.2134 11.4735
L40.1753 11.3211
" />
<path d="M40.1753 11.3211
L40.1753 11.1307
" />
<path d="M40.1753 11.1307
L40.2134 10.9783
" />
<path d="M40.2134 10.9783
L40.2515 10.9021
" />
<path d="M40.2515 10.9021
L40.2896 10.8640
" />
<path d="M40.2896 10.8640
L40.3658 10.8259
" />
</g><circle cx="35.7610" cy="11.2610" r="0.3000" /> 
<circle cx="38.7610" cy="11.2610" r="0.3000" /> 
<text x="22.2930" y="8.6930"
textLength="6.5400" font-size="1.0667" lengthAdjust="spacingAndGlyphs"
text-anchor="middle" opacity="0" stroke-opacity="0">r_west F 0</text>
<g class="stroked-text"><desc>r_west F 0</desc>
<path d="M19.2835 8.6579
L19.2835 8.1246
" />
<path d="M19.2835 8.2769
L19.3216 8.2008
" />
<path d="M19.3216 8.2008
L19.3597 8.1627
" />
<path d="M19.3597 8.1627
L19.4359 8.1246
" />
<path d="M19.4359 8.1246
L19.5120 8.1246
" />
<path d="M19.5882 8.7341
L20.1978 8.7341
" />
<path d="M20.3120 8.1246
L20.4644 8.6579
" />
<path d="M20.4644 8.6579
L20.6168 8.2769
" />
<path d="M20.6168 8.2769
L20.7692 8.6579
" />
<path d="M20.7692 8.6579
L20.9216 8.1246
" />
<path d="M21.5311 8.6198
L21.4549 8.6579
" />
<path d="M21.4549 8.6579
L21.3025 8.6579
" />
<path d="M21.3025 8.6579
L21.2263 8.6198
" />
<path d="M21.2263 8.6198
L21.1882 8.5436
" />
<path d="M21.1882 8.5436
L21.1882 8.2388
" />
<path d="M21.1882 8.2388
L21.2263 8.1627
" />
<path d="M21.2263 8.1627
L21.3025 8.1246
" />
<path d="M21.3025 8.1246
L21.4549 8.1246
" />
<path d="M21.4549 8.1246
L21.5311 8.1627
" />
<path d="M21.5311 8.1627
L21.5692 8.2388
" />
<path d="M21.5692 8.2388
L21.5692 8.3150
" />
<path d="M21.5692 8.3150
L21.1882 8.3912
" />
<path d="M21.8740 8.6198
L21.9501 8.6579
" />
<path d="M21.9501 8.6579
L22.1025 8.6579
" />
<path d="M22.1025 8.6579
L22.1787 8.6198
" />
<path d="M22.1787 8.6198
L22.2168 8.5436
" />
<path d="M22.2168 8.5436
L22.2168 8.5055
" />
<path d="M22.2168 8.5055
L22.1787 8.4293
" />
<path d="M22.1787 8.4293
L22.1025 8.3912
" />
<path d="M22.1025 8.3912
L21.9882 8.3912
" />
<path d="M21.9882 8.3912
L21.9120 8.3531
" />
<path d="M21.9120 8.3531
L21.8740 8.2769
" />
<path d="M21.8740 8.2769
L21.8740 8.2388
" />
<path d="M21.8740 8.2388
L21.9120 8.1627
" />
<path d="M21.9120 8.1627
L21.9882 8.1246
" />
<path d="M21.9882 8.1246
L22.1025 8.1246
" />
<path d="M22.1025 8.1246
L22.1787 8.1627
" />
<path d="M22.4454 8.1246
L22.7501 8.1246
" />
<path d="M22.5597 7.8579
L22.5597 8.5436
" />
<path d="M22.5597 8.5436
L22.5978 8.6198
" />
<path d="M22.5978 8.6198
L22.6740 8.6579
" />
<path d="M22.6740 8.6579
L22.7501 8.6579
" />
<path d="M23.8930 8.2388
L23.6263 8.2388
" />
<path d="M23.6263 8.6579
L23.6263 7.8579
" />
<path d="M23.6263 7.8579
L24.0073 7.8579
" />
<path d="M25.0740 7.8579
L25.1501 7.8579
" />
<path d="M25.1501 7.8579
L25.2263 7.8960
" />
<path d="M25.2263 7.8960
L25.2644 7.9341
" />
<path d="M25.2644 7.9341
L25.3025 8.0103
" />
<path d="M25.3025 8.0103
L25.3406 8.1627
" />
<path d="M25.3406 8.1627
L25.3406 8.3531
" />
<path d="M25.3406 8.3531
L25.3025 8.5055
" />
<path d="M25.3025 8.5055
L25.2644 8.5817
" />
<path d="M25.2644 8.5817
L25.2263 8.6198
" />
<path d="M25.2263 8.6198
L25.1501 8.6579
" />
<path d="M25.1501 8.6579
L25.0740 8.6579
" />
<path d="M25.0740 8.6579
L24.9978 8.6198
" />
<path d="M24.9978 8.6198
L24.9597 8.5817
" />
<path d="M24.9597 8.5817
L24.9216 8.5055
" />
<path d="M24.9216 8.5055
L24.8835 8.3531
" />
<path d="M24.8835 8.3531
L24.8835 8.1627
" />
<path d="M24.8835 8.1627
L24.9216 8.0103
" />
<path d="M24.9216 8.0103
L24.9597 7.9341
" />
<path d="M24.9597 7.9341
L24.9978 7.8960
" />
<path d="M24.9978 7.8960
L25.0740 7.8579
" />
</g><circle cx="20.7930" cy="8.2930" r="0.3000" /> 
<circle cx="23.7930" cy="8.2930" r="0.3000" /> 
</g>
<g style="fill:none; 
stroke:#E8B2A7; stroke-width:0.1000; stroke-opacity:1; 
stroke-linecap:round; stroke-linejoin:round;">
<text x="24.0500" y="15.4500"
textLength="6.2733" font-size="1.0667" lengthAdjust="spacingAndGlyphs"
text-anchor="middle" opacity="0" stroke-opacity="0">ic1 B 270</text>
<g class="stroked-text"><desc>ic1 B 270</desc>
<path d="M21.1738 15.4149
L21.1738 14.8816
" />
<path d="M21.1738 14.6149
L21.1357 14.6530
" />
<path d="M21.1357 14.6530
L21.1738 14.6911
" />
<path d="M21.1738 14.6911
L21.2119 14.6530
" />
<path d="M21.2119 14.6530
L21.1738 14.6149
" />
<path d="M21.1738 14.6149
L21.1738 14.6911
" />
<path d="M21.8976 15.3768
L21.8214 15.4149
" />
<path d="M21.8214 15.4149
L21.6690 15.4149
" />
<path d="M21.6690 15.4149
L21.5929 15.3768
" />
<path d="M21.5929 15.3768
L21.5548 15.3387
" />
<path d="M21.5548 15.3387
L21.5167 15.2625
" />
<path d="M21.5167 15.2625
L21.5167 15.0339
" />
<path d="M21.5167 15.0339
L21.5548 14.9578
" />
<path d="M21.5548 14.9578
L21.5929 14.9197
" />
<path d="M21.5929 14.9197
L21.6690 14.8816
" />
<path d="M21.6690 14.8816
L21.8214 14.8816
" />
<path d="M21.8214 14.8816
L21.8976 14.9197
" />
<path d="M22.6595 15.4149
L22.2024 15.4149
" />
<path d="M22.4310 15.4149
L22.4310 14.6149
" />
<path d="M22.4310 14.6149
L22.3548 14.7292
" />
<path d="M22.3548 14.7292
L22.2786 14.8054
" />
<path d="M22.2786 14.8054
L22.2024 14.8435
" />
<path d="M23.8786 14.9958
L23.9929 15.0339
" />
<path d="M23.9929 15.0339
L24.0310 15.0720
" />
<path d="M24.0310 15.0720
L24.0690 15.1482
" />
<path d="M24.0690 15.1482
L24.0690 15.2625
" />
<path d="M24.0690 15.2625
L24.0310 15.3387
" />
<path d="M24.0310 15.3387
L23.9929 15.3768
" />
<path d="M23.9929 15.3768
L23.9167 15.4149
" />
<path d="M23.9167 15.4149
L23.6119 15.4149
" />
<path d="M23.6119 15.4149
L23.6119 14.6149
" />
<path d="M23.6119 14.6149
L23.8786 14.6149
" />
<path d="M23.8786 14.6149
L23.9548 14.6530
" />
<path d="M23.9548 14.6530
L23.9929 14.6911
" />
<path d="M23.9929 14.6911
L24.0310 14.7673
" />
<path d="M24.0310 14.7673
L24.0310 14.8435
" />
<path d="M24.0310 14.8435
L23.9929 14.9197
" />
<path d="M23.9929 14.9197
L23.9548 14.9578
" />
<path d="M23.9548 14.9578
L23.8786 14.9958
" />
<path d="M23.8786 14.9958
L23.6119 14.9958
" />
<path d="M24.9833 14.6911
L25.0214 14.6530
" />
<path d="M25.0214 14.6530
L25.0976 14.6149
" />
<path d="M25.0976 14.6149
L25.2881 14.6149
" />
<path d="M25.2881 14.6149
L25.3643 14.6530
" />
<path d="M25.3643 14.6530
L25.4024 14.6911
" />
<path d="M25.4024 14.6911
L25.4405 14.7673
" />
<path d="M25.4405 14.7673
L25.4405 14.8435
" />
<path d="M25.4405 14.8435
L25.4024 14.9578
" />
<path d="M25.4024 14.9578
L24.9452 15.4149
" />
<path d="M24.9452 15.4149
L25.4405 15.4149
" />
<path d="M25.7071 14.6149
L26.2405 14.6149
" />
<path d="M26.2405 14.6149
L25.8976 15.4149
" />
<path d="M26.6976 14.6149
L26.7738 14.6149
" />
<path d="M26.7738 14.6149
L26.8500 14.6530
" />
<path d="M26.8500 14.6530
L26.8881 14.6911
" />
<path d="M26.8881 14.6911
L26.9262 14.7673
" />
<path d="M26.9262 14.7673
L26.9643 14.9197
" />
<path d="M26.9643 14.9197
L26.9643 15.1101
" />
<path d="M26.9643 15.1101
L26.9262 15.2625
" />
<path d="M26.9262 15.2625
L26.8881 15.3387
" />
<path d="M26.8881 15.3387
L26.8500 15.3768
" />
<path d="M26.8500 15.3768
L26.7738 15.4149
" />
<path d="M26.7738 15.4149
L26.6976 15.4149
" />
<path d="M26.6976 15.4149
L26.6214 15.3768
" />
<path d="M26.6214 15.3768
L26.5833 15.3387
" />
<path d="M26.5833 15.3387
L26.5452 15.2625
" />
<path d="M26.5452 15.2625
L26.5071 15.1101
" />
<path d="M26.5071 15.1101
L26.5071 14.9197
" />
<path d="M26.5071 14.9197
L26.5452 14.7673
" />
<path d="M26.5452 14.7673
L26.5833 14.6911
" />
<path d="M26.5833 14.6911
L26.6214 14.6530
" />
<path d="M26.6214 14.6530
L26.6976 14.6149
" />
</g><circle cx="28.0500" cy="15.0500" r="0.3000" /> 
<circle cx="20.0500" cy="15.0500" r="0.3000" /> 
<circle cx="24.0500" cy="12.0500" r="0.3000" /> 
<circle cx="24.0500" cy="18.0500" r="0.3000" /> 
</g>
<g style="fill:none; 
stroke:#D0D2CD; stroke-width:0.1000; stroke-opacity:1; 
stroke-linecap:round; stroke-linejoin:round;">
<path d="M0.0500 0.0500
L60.0500 0.0500
" />
<path d="M60.0500 0.0500
L60.0500 40.0500
" />
<path d="M60.0500 40.0500
L0.0500 40.0500
" />
<path d="M0.0500 40.0500
L0.0500 0.0500
" />
</g> 
</svg>
