<?xml version="1.0" standalone="no"?>
 <!DOCTYPE svg PUBLIC "-//W3C//DTD SVG 1.1//EN" 
 "http://www.w3.org/Graphics/SVG/1.1/DTD/svg11.dtd"> 
<svg
  xmlns:svg="http://www.w3.org/2000/svg"
  xmlns="http://www.w3.org/2000/svg"
  xmlns:xlink="http://www.w3.org/1999/xlink"
  version="1.1"
  width="60.0964mm" height="40.0812mm" viewBox="0.0000 0.0000 60.0964 40.0812">
<title>SVG Image created as kicad_back_0.svg date 2026/03/20 21:27:52 </title>
  <desc>Image generated by PCBNEW </desc>
<g style="fill:#000000; fill-opacity:1.0000;stroke:#000000; stroke-opacity:1.0000;
stroke-linecap:round; stroke-linejoin:round;"
 transform="translate(0 0) scale(1 1)">
<path style="fill:none; 
stroke:#AFAFAF; stroke-width:0.1500; stroke-opacity:1; 
stroke-linecap:round; stroke-linejoin:round;fill:none"
d="M 34.0330,25.7500
37.0330,25.7500
37.0330,27.2500
34.0330,27.2500
Z" /> 
<path style="fill:none; 
stroke:#AFAFAF; stroke-width:0.1500; stroke-opacity:1; 
stroke-linecap:round; stroke-linejoin:round;fill:none"
d="M 34.0330,10.7830
37.0330,10.7830
37.0330,12.2830
34.0330,12.2830
Z" /> 
<path style="fill:none; 
stroke:#AFAFAF; stroke-width:0.1500; stroke-opacity:1; 
stroke-linecap:round; stroke-linejoin:round;fill:none"
d="M 22.4660,27.2160
25.4660,27.2160
25.4660,28.7160
22.4660,28.7160
Z" /> 
<path style="fill:none; 
stroke:#AFAFAF; stroke-width:0.1500; stroke-opacity:1; 
stroke-linecap:round; stroke-linejoin:round;fill:none"
d="M 20.4230,7.1730
23.4230,7.1730
23.4230,8.6730
20.4230,8.6730
Z" /> 
<path style="fill:none; 
stroke:#585D84; stroke-width:0.1500; stroke-opacity:1; 
stroke-linecap:round; stroke-linejoin:round;fill:none"
d="M 20.0500,12.0500
26.0500,12.0500
26.0500,20.0500
20.0500,20.0500
Z" /> 
</g>
<g style="fill:none; 
stroke:#F2EDA1; stroke-width:0.1000; stroke-opacity:1; 
stroke-linecap:round; stroke-linejoin:round;">
<text x="35.5330" y="26.9000"
textLength="7.0352" font-size="1.0667" lengthAdjust="spacingAndGlyphs"
text-anchor="middle" opacity="0" stroke-opacity="0">r_north F 0</text>
<g class="stroked-text"><desc>r_north F 0</desc>
<path d="M32.2759 26.8649
L32.2759 26.3316
" />
<path d="M32.2759 26.4839
L32.3140 26.4078
" />
<path d="M32.3140 26.4078
L32.3520 26.3697
" />
<path d="M32.3520 26.3697
L32.4282 26.3316
" />
<path d="M32.4282 26.3316
L32.5044 26.3316
" />
<path d="M32.5806 26.9411
L33.1901 26.9411
" />
<path d="M33.3806 26.3316
L33.3806 26.8649
" />
<path d="M33.3806 26.4078
L33.4187 26.3697
" />
<path d="M33.4187 26.3697
L33.4949 26.3316
" />
<path d="M33.4949 26.3316
L33.6092 26.3316
" />
<path d="M33.6092 26.3316
L33.6854 26.3697
" />
<path d="M33.6854 26.3697
L33.7235 26.4458
" />
<path d="M33.7235 26.4458
L33.7235 26.8649
" />
<path d="M34.2187 26.8649
L34.1425 26.8268
" />
<path d="M34.1425 26.8268
L34.1044 26.7887
" />
<path d="M34.1044 26.7887
L34.0663 26.7125
" />
<path d="M34.0663 26.7125
L34.0663 26.4839
" />
<path d="M34.0663 26.4839
L34.1044 26.4078
" />
<path d="M34.1044 26.4078
L34.1425 26.3697
" />
<path d="M34.1425 26.3697
L34.2187 26.3316
" />
<path d="M34.2187 26.3316
L34.3330 26.3316
" />
<path d="M34.3330 26.3316
L34.4092 26.3697
" />
<path d="M34.4092 26.3697
L34.4473 26.4078
" />
<path d="M34.4473 26.4078
L34.4854 26.4839
" />
<path d="M34.4854 26.4839
L34.4854 26.7125
" />
<path d="M34.4854 26.7125
L34.4473 26.7887
" />
<path d="M34.4473 26.7887
L34.4092 26.8268
" />
<path d="M34.4092 26.8268
L34.3330 26.8649
" />
<path d="M34.3330 26.8649
L34.2187 26.8649
" />
<path d="M34.8282 26.8649
L34.8282 26.3316
" />
<path d="M34.8282 26.4839
L34.8663 26.4078
" />
<path d="M34.8663 26.4078
L34.9044 26.3697
" />
<path d="M34.9044 26.3697
L34.9806 26.3316
" />
<path d="M34.9806 26.3316
L35.0568 26.3316
" />
<path d="M35.2092 26.3316
L35.5140 26.3316
" />
<path d="M35.3235 26.0649
L35.3235 26.7506
" />
<path d="M35.3235 26.7506
L35.3616 26.8268
" />
<path d="M35.3616 26.8268
L35.4378 26.8649
" />
<path d="M35.4378 26.8649
L35.5140 26.8649
" />
<path d="M35.7806 26.8649
L35.7806 26.0649
" />
<path d="M36.1235 26.8649
L36.1235 26.4458
" />
<path d="M36.1235 26.4458
L36.0854 26.3697
" />
<path d="M36.0854 26.3697
L36.0092 26.3316
" />
<path d="M36.0092 26.3316
L35.8949 26.3316
" />
<path d="M35.8949 26.3316
L35.8187 26.3697
" />
<path d="M35.8187 26.3697
L35.7806 26.4078
" />
<path d="M37.3806 26.4458
L37.1140 26.4458
" />
<path d="M37.1140 26.8649
L37.1140 26.0649
" />
<path d="M37.1140 26.0649
L37.4949 26.0649
" />
<path d="M38.5616 26.0649
L38.6378 26.0649
" />
<path d="M38.6378 26.0649
L38.7140 26.1030
" />
<path d="M38.7140 26.1030
L38.7520 26.1411
" />
<path d="M38.7520 26.1411
L38.7901 26.2173
" />
<path d="M38.7901 26.2173
L38.8282 26.3697
" />
<path d="M38.8282 26.3697
L38.8282 26.5601
" />
<path d="M38.8282 26.5601
L38.7901 26.7125
" />
<path d="M38.7901 26.7125
L38.7520 26.7887
" />
<path d="M38.7520 26.7887
L38.7140 26.8268
" />
<path d="M38.7140 26.8268
L38.6378 26.8649
" />
<path d="M38.6378 26.8649
L38.5616 26.8649
" />
<path d="M38.5616 26.8649
L38.4854 26.8268
" />
<path d="M38.4854 26.8268
L38.4473 26.7887
" />
<path d="M38.4473 26.7887
L38.4092 26.7125
" />
<path d="M38.4092 26.7125
L38.3711 26.5601
" />
<path d="M38.3711 26.5601
L38.3711 26.3697
" />
<path d="M38.3711 26.3697
L38.4092 26.2173
" />
<path d="M38.4092 26.2173
L38.4473 26.1411
" />
<path d="M38.4473 26.1411
L38.4854 26.1030
" />
<path d="M38.4854 26.1030
L38.5616 26.0649
" />
</g><circle cx="34.0330" cy="26.5000" r="0.3000" /> 
<circle cx="37.0330" cy="26.5000" r="0.3000" /> 
<text x="35.5330" y="11.9330"
textLength="6.4257" font-size="1.0667" lengthAdjust="spacingAndGlyphs"
text-anchor="middle" opacity="0" stroke-opacity="0">r_east F 0</text>
<g class="stroked-text"><desc>r_east F 0</desc>
<path d="M32.5806 11.8979
L32.5806 11.3646
" />
<path d="M32.5806 11.5169
L32.6187 11.4408
" />
<path d="M32.6187 11.4408
L32.6568 11.4027
" />
<path d="M32.6568 11.4027
L32.7330 11.3646
" />
<path d="M32.7330 11.3646
L32.8092 11.3646
" />
<path d="M32.8854 11.9741
L33.4949 11.9741
" />
<path d="M33.9901 11.8598
L33.9140 11.8979
" />
<path d="M33.9140 11.8979
L33.7616 11.8979
" />
<path d="M33.7616 11.8979
L33.6854 11.8598
" />
<path d="M33.6854 11.8598
L33.6473 11.7836
" />
<path d="M33.6473 11.7836
L33.6473 11.4788
" />
<path d="M33.6473 11.4788
L33.6854 11.4027
" />
<path d="M33.6854 11.4027
L33.7616 11.3646
" />
<path d="M33.7616 11.3646
L33.9140 11.3646
" />
<path d="M33.9140 11.3646
L33.9901 11.4027
" />
<path d="M33.9901 11.4027
L34.0282 11.4788
" />
<path d="M34.0282 11.4788
L34.0282 11.5550
" />
<path d="M34.0282 11.5550
L33.6473 11.6312
" />
<path d="M34.7140 11.8979
L34.7140 11.4788
" />
<path d="M34.7140 11.4788
L34.6759 11.4027
" />
<path d="M34.6759 11.4027
L34.5997 11.3646
" />
<path d="M34.5997 11.3646
L34.4473 11.3646
" />
<path d="M34.4473 11.3646
L34.3711 11.4027
" />
<path d="M34.7140 11.8598
L34.6378 11.8979
" />
<path d="M34.6378 11.8979
L34.4473 11.8979
" />
<path d="M34.4473 11.8979
L34.3711 11.8598
" />
<path d="M34.3711 11.8598
L34.3330 11.7836
" />
<path d="M34.3330 11.7836
L34.3330 11.7074
" />
<path d="M34.3330 11.7074
L34.3711 11.6312
" />
<path d="M34.3711 11.6312
L34.4473 11.5931
" />
<path d="M34.4473 11.5931
L34.6378 11.5931
" />
<path d="M34.6378 11.5931
L34.7140 11.5550
" />
<path d="M35.0568 11.8598
L35.1330 11.8979
" />
<path d="M35.1330 11.8979
L35.2854 11.8979
" />
<path d="M35.2854 11.8979
L35.3616 11.8598
" />
<path d="M35.3616 11.8598
L35.3997 11.7836
" />
<path d="M35.3997 11.7836
L35.3997 11.7455
" />
<path d="M35.3997 11.7455
L35.3616 11.6693
" />
<path d="M35.3616 11.6693
L35.2854 11.6312
" />
<path d="M35.2854 11.6312
L35.1711 11.6312
" />
<path d="M35.1711 11.6312
L35.0949 11.5931
" />
<path d="M35.0949 11.5931
L35.0568 11.5169
" />
<path d="M35.0568 11.5169
L35.0568 11.4788
" />
<path d="M35.0568 11.4788
L35.0949 11.4027
" />
<path d="M35.0949 11.4027
L35.1711 11.3646
" />
<path d="M35.1711 11.3646
L35.2854 11.3646
" />
<path d="M35.2854 11.3646
L35.3616 11.4027
" />
<path d="M35.6282 11.3646
L35.9330 11.3646
" />
<path d="M35.7425 11.0979
L35.7425 11.7836
" />
<path d="M35.7425 11.7836
L35.7806 11.8598
" />
<path d="M35.7806 11.8598
L35.8568 11.8979
" />
<path d="M35.8568 11.8979
L35.9330 11.8979
" />
<path d="M37.0759 11.4788
L36.8092 11.4788
" />
<path d="M36.8092 11.8979
L36.8092 11.0979
" />
<path d="M36.8092 11.0979
L37.1901 11.0979
" />
<path d="M38.2568 11.0979
L38.3330 11.0979
" />
<path d="M38.3330 11.0979
L38.4092 11.1360
" />
<path d="M38.4092 11.1360
L38.4473 11.1741
" />
<path d="M38.4473 11.1741
L38.4854 11.2503
" />
<path d="M38.4854 11.2503
L38.5235 11.4027
" />
<path d="M38.5235 11.4027
L38.5235 11.5931
" />
<path d="M38.5235 11.5931
L38.4854 11.7455
" />
<path d="M38.4854 11.7455
L38.4473 11.8217
" />
<path d="M38.4473 11.8217
L38.4092 11.8598
" />
<path d="M38.4092 11.8598
L38.3330 11.8979
" />
<path d="M38.3330 11.8979
L38.2568 11.8979
" />
<path d="M38.2568 11.8979
L38.1806 11.8598
" />
<path d="M38.1806 11.8598
L38.1425 11.8217
" />
<path d="M38.1425 11.8217
L38.1044 11.7455
" />
<path d="M38.1044 11.7455
L38.0663 11.5931
" />
<path d="M38.0663 11.5931
L38.0663 11.4027
" />
<path d="M38.0663 11.4027
L38.1044 11.2503
" />
<path d="M38.1044 11.2503
L38.1425 11.1741
" />
<path d="M38.1425 11.1741
L38.1806 11.1360
" />
<path d="M38.1806 11.1360
L38.2568 11.0979
" />
</g><circle cx="34.0330" cy="11.5330" r="0.3000" /> 
<circle cx="37.0330" cy="11.5330" r="0.3000" /> 
<text x="23.9660" y="28.3660"
textLength="7.1876" font-size="1.0667" lengthAdjust="spacingAndGlyphs"
text-anchor="middle" opacity="0" stroke-opacity="0">r_south F 0</text>
<g class="stroked-text"><desc>r_south F 0</desc>
<path d="M20.6327 28.3309
L20.6327 27.7976
" />
<path d="M20.6327 27.9499
L20.6708 27.8738
" />
<path d="M20.6708 27.8738
L20.7089 27.8357
" />
<path d="M20.7089 27.8357
L20.7850 27.7976
" />
<path d="M20.7850 27.7976
L20.8612 27.7976
" />
<path d="M20.9374 28.4071
L21.5470 28.4071
" />
<path d="M21.6993 28.2928
L21.7755 28.3309
" />
<path d="M21.7755 28.3309
L21.9279 28.3309
" />
<path d="M21.9279 28.3309
L22.0041 28.2928
" />
<path d="M22.0041 28.2928
L22.0422 28.2166
" />
<path d="M22.0422 28.2166
L22.0422 28.1785
" />
<path d="M22.0422 28.1785
L22.0041 28.1023
" />
<path d="M22.0041 28.1023
L21.9279 28.0642
" />
<path d="M21.9279 28.0642
L21.8136 28.0642
" />
<path d="M21.8136 28.0642
L21.7374 28.0261
" />
<path d="M21.7374 28.0261
L21.6993 27.9499
" />
<path d="M21.6993 27.9499
L21.6993 27.9118
" />
<path d="M21.6993 27.9118
L21.7374 27.8357
" />
<path d="M21.7374 27.8357
L21.8136 27.7976
" />
<path d="M21.8136 27.7976
L21.9279 27.7976
" />
<path d="M21.9279 27.7976
L22.0041 27.8357
" />
<path d="M22.4993 28.3309
L22.4231 28.2928
" />
<path d="M22.4231 28.2928
L22.3850 28.2547
" />
<path d="M22.3850 28.2547
L22.3470 28.1785
" />
<path d="M22.3470 28.1785
L22.3470 27.9499
" />
<path d="M22.3470 27.9499
L22.3850 27.8738
" />
<path d="M22.3850 27.8738
L22.4231 27.8357
" />
<path d="M22.4231 27.8357
L22.4993 27.7976
" />
<path d="M22.4993 27.7976
L22.6136 27.7976
" />
<path d="M22.6136 27.7976
L22.6898 27.8357
" />
<path d="M22.6898 27.8357
L22.7279 27.8738
" />
<path d="M22.7279 27.8738
L22.7660 27.9499
" />
<path d="M22.7660 27.9499
L22.7660 28.1785
" />
<path d="M22.7660 28.1785
L22.7279 28.2547
" />
<path d="M22.7279 28.2547
L22.6898 28.2928
" />
<path d="M22.6898 28.2928
L22.6136 28.3309
" />
<path d="M22.6136 28.3309
L22.4993 28.3309
" />
<path d="M23.4517 27.7976
L23.4517 28.3309
" />
<path d="M23.1089 27.7976
L23.1089 28.2166
" />
<path d="M23.1089 28.2166
L23.1470 28.2928
" />
<path d="M23.1470 28.2928
L23.2231 28.3309
" />
<path d="M23.2231 28.3309
L23.3374 28.3309
" />
<path d="M23.3374 28.3309
L23.4136 28.2928
" />
<path d="M23.4136 28.2928
L23.4517 28.2547
" />
<path d="M23.7184 27.7976
L24.0231 27.7976
" />
<path d="M23.8327 27.5309
L23.8327 28.2166
" />
<path d="M23.8327 28.2166
L23.8708 28.2928
" />
<path d="M23.8708 28.2928
L23.9470 28.3309
" />
<path d="M23.9470 28.3309
L24.0231 28.3309
" />
<path d="M24.2898 28.3309
L24.2898 27.5309
" />
<path d="M24.6327 28.3309
L24.6327 27.9118
" />
<path d="M24.6327 27.9118
L24.5946 27.8357
" />
<path d="M24.5946 27.8357
L24.5184 27.7976
" />
<path d="M24.5184 27.7976
L24.4041 27.7976
" />
<path d="M24.4041 27.7976
L24.3279 27.8357
" />
<path d="M24.3279 27.8357
L24.2898 27.8738
" />
<path d="M25.8898 27.9118
L25.6231 27.9118
" />
<path d="M25.6231 28.3309
L25.6231 27.5309
" />
<path d="M25.6231 27.5309
L26.0041 27.5309
" />
<path d="M27.0708 27.5309
L27.1470 27.5309
" />
<path d="M27.1470 27.5309
L27.2231 27.5690
" />
<path d="M27.2231 27.5690
L27.2612 27.6071
" />
<path d="M27.2612 27.6071
L27.2993 27.6833
" />
<path d="M27.2993 27.6833
L27.3374 27.8357
" />
<path d="M27.3374 27.8357
L27.3374 28.0261
" />
<path d="M27.3374 28.0261
L27.2993 28.1785
" />
<path d="M27.2993 28.1785
L27.2612 28.2547
" />
<path d="M27.2612 28.2547
L27.2231 28.2928
" />
<path d="M27.2231 28.2928
L27.1470 28.3309
" />
<path d="M27.1470 28.3309
L27.0708 28.3309
" />
<path d="M27.0708 28.3309
L26.9946 28.2928
" />
<path d="M26.9946 28.2928
L26.9565 28.2547
" />
<path d="M26.9565 28.2547
L26.9184 28.1785
" />
<path d="M26.9184 28.1785
L26.8803 28.0261
" />
<path d="M26.8803 28.0261
L26.8803 27.8357
" />
<path d="M26.8803 27.8357
L26.9184 27.6833
" />
<path d="M26.9184 27.6833
L26.9565 27.6071
" />
<path d="M26.9565 27.6071
L26.9946 27.5690
" />
<path d="M26.9946 27.5690
L27.0708 27.5309
" />
</g><circle cx="22.4660" cy="27.9660" r="0.3000" /> 
<circle cx="25.4660" cy="27.9660" r="0.3000" /> 
<text x="21.9230" y="8.3230"
textLength="6.5400" font-size="1.0667" lengthAdjust="spacingAndGlyphs"
text-anchor="middle" opacity="0" stroke-opacity="0">r_west F 0</text>
<g class="stroked-text"><desc>r_west F 0</desc>
<path d="M18.9135 8.2879
L18.9135 7.7546
" />
<path d="M18.9135 7.9069
L18.9516 7.8308
" />
<path d="M18.9516 7.8308
L18.9897 7.7927
" />
<path d="M18.9897 7.7927
L19.0659 7.7546
" />
<path d="M19.0659 7.7546
L19.1420 7.7546
" />
<path d="M19.2182 8.3641
L19.8278 8.3641
" />
<path d="M19.9420 7.7546
L20.0944 8.2879
" />
<path d="M20.0944 8.2879
L20.2468 7.9069
" />
<path d="M20.2468 7.9069
L20.3992 8.2879
" />
<path d="M20.3992 8.2879
L20.5516 7.7546
" />
<path d="M21.1611 8.2498
L21.0849 8.2879
" />
<path d="M21.0849 8.2879
L20.9325 8.2879
" />
<path d="M20.9325 8.2879
L20.8563 8.2498
" />
<path d="M20.8563 8.2498
L20.8182 8.1736
" />
<path d="M20.8182 8.1736
L20.8182 7.8688
" />
<path d="M20.8182 7.8688
L20.8563 7.7927
" />
<path d="M20.8563 7.7927
L20.9325 7.7546
" />
<path d="M20.9325 7.7546
L21.0849 7.7546
" />
<path d="M21.0849 7.7546
L21.1611 7.7927
" />
<path d="M21.1611 7.7927
L21.1992 7.8688
" />
<path d="M21.1992 7.8688
L21.1992 7.9450
" />
<path d="M21.1992 7.9450
L20.8182 8.0212
" />
<path d="M21.5040 8.2498
L21.5801 8.2879
" />
<path d="M21.5801 8.2879
L21.7325 8.2879
" />
<path d="M21.7325 8.2879
L21.8087 8.2498
" />
<path d="M21.8087 8.2498
L21.8468 8.1736
" />
<path d="M21.8468 8.1736
L21.8468 8.1355
" />
<path d="M21.8468 8.1355
L21.8087 8.0593
" />
<path d="M21.8087 8.0593
L21.7325 8.0212
" />
<path d="M21.7325 8.0212
L21.6182 8.0212
" />
<path d="M21.6182 8.0212
L21.5420 7.9831
" />
<path d="M21.5420 7.9831
L21.5040 7.9069
" />
<path d="M21.5040 7.9069
L21.5040 7.8688
" />
<path d="M21.5040 7.8688
L21.5420 7.7927
" />
<path d="M21.5420 7.7927
L21.6182 7.7546
" />
<path d="M21.6182 7.7546
L21.7325 7.7546
" />
<path d="M21.7325 7.7546
L21.8087 7.7927
" />
<path d="M22.0754 7.7546
L22.3801 7.7546
" />
<path d="M22.1897 7.4879
L22.1897 8.1736
" />
<path d="M22.1897 8.1736
L22.2278 8.2498
" />
<path d="M22.2278 8.2498
L22.3040 8.2879
" />
<path d="M22.3040 8.2879
L22.3801 8.2879
" />
<path d="M23.5230 7.8688
L23.2563 7.8688
" />
<path d="M23.2563 8.2879
L23.2563 7.4879
" />
<path d="M23.2563 7.4879
L23.6373 7.4879
" />
<path d="M24.7040 7.4879
L24.7801 7.4879
" />
<path d="M24.7801 7.4879
L24.8563 7.5260
" />
<path d="M24.8563 7.5260
L24.8944 7.5641
" />
<path d="M24.8944 7.5641
L24.9325 7.6403
" />
<path d="M24.9325 7.6403
L24.9706 7.7927
" />
<path d="M24.9706 7.7927
L24.9706 7.9831
" />
<path d="M24.9706 7.9831
L24.9325 8.1355
" />
<path d="M24.9325 8.1355
L24.8944 8.2117
" />
<path d="M24.8944 8.2117
L24.8563 8.2498
" />
<path d="M24.8563 8.2498
L24.7801 8.2879
" />
<path d="M24.7801 8.2879
L24.7040 8.2879
" />
<path d="M24.7040 8.2879
L24.6278 8.2498
" />
<path d="M24.6278 8.2498
L24.5897 8.2117
" />
<path d="M24.5897 8.2117
L24.5516 8.1355
" />
<path d="M24.5516 8.1355
L24.5135 7.9831
" />
<path d="M24.5135 7.9831
L24.5135 7.7927
" />
<path d="M24.5135 7.7927
L24.5516 7.6403
" />
<path d="M24.5516 7.6403
L24.5897 7.5641
" />
<path d="M24.5897 7.5641
L24.6278 7.5260
" />
<path d="M24.6278 7.5260
L24.7040 7.4879
" />
</g><circle cx="20.4230" cy="7.9230" r="0.3000" /> 
<circle cx="23.4230" cy="7.9230" r="0.3000" /> 
</g>
<g style="fill:none; 
stroke:#E8B2A7; stroke-width:0.1000; stroke-opacity:1; 
stroke-linecap:round; stroke-linejoin:round;">
<text x="23.0500" y="16.4500"
textLength="4.7495" font-size="1.0667" lengthAdjust="spacingAndGlyphs"
text-anchor="middle" opacity="0" stroke-opacity="0">ic1 B 0</text>
<g class="stroked-text"><desc>ic1 B 0</desc>
<path d="M20.9357 16.4149
L20.9357 15.8816
" />
<path d="M20.9357 15.6149
L20.8976 15.6530
" />
<path d="M20.8976 15.6530
L20.9357 15.6911
" />
<path d="M20.9357 15.6911
L20.9738 15.6530
" />
<path d="M20.9738 15.6530
L20.9357 15.6149
" />
<path d="M20.9357 15.6149
L20.9357 15.6911
" />
<path d="M21.6595 16.3768
L21.5833 16.4149
" />
<path d="M21.5833 16.4149
L21.4310 16.4149
" />
<path d="M21.4310 16.4149
L21.3548 16.3768
" />
<path d="M21.3548 16.3768
L21.3167 16.3387
" />
<path d="M21.3167 16.3387
L21.2786 16.2625
" />
<path d="M21.2786 16.2625
L21.2786 16.0339
" />
<path d="M21.2786 16.0339
L21.3167 15.9578
" />
<path d="M21.3167 15.9578
L21.3548 15.9197
" />
<path d="M21.3548 15.9197
L21.4310 15.8816
" />
<path d="M21.4310 15.8816
L21.5833 15.8816
" />
<path d="M21.5833 15.8816
L21.6595 15.9197
" />
<path d="M22.4214 16.4149
L21.9643 16.4149
" />
<path d="M22.1929 16.4149
L22.1929 15.6149
" />
<path d="M22.1929 15.6149
L22.1167 15.7292
" />
<path d="M22.1167 15.7292
L22.0405 15.8054
" />
<path d="M22.0405 15.8054
L21.9643 15.8435
" />
<path d="M23.6405 15.9958
L23.7548 16.0339
" />
<path d="M23.7548 16.0339
L23.7929 16.0720
" />
<path d="M23.7929 16.0720
L23.8310 16.1482
" />
<path d="M23.8310 16.1482
L23.8310 16.2625
" />
<path d="M23.8310 16.2625
L23.7929 16.3387
" />
<path d="M23.7929 16.3387
L23.7548 16.3768
" />
<path d="M23.7548 16.3768
L23.6786 16.4149
" />
<path d="M23.6786 16.4149
L23.3738 16.4149
" />
<path d="M23.3738 16.4149
L23.3738 15.6149
" />
<path d="M23.3738 15.6149
L23.6405 15.6149
" />
<path d="M23.6405 15.6149
L23.7167 15.6530
" />
<path d="M23.7167 15.6530
L23.7548 15.6911
" />
<path d="M23.7548 15.6911
L23.7929 15.7673
" />
<path d="M23.7929 15.7673
L23.7929 15.8435
" />
<path d="M23.7929 15.8435
L23.7548 15.9197
" />
<path d="M23.7548 15.9197
L23.7167 15.9578
" />
<path d="M23.7167 15.9578
L23.6405 15.9958
" />
<path d="M23.6405 15.9958
L23.3738 15.9958
" />
<path d="M24.9357 15.6149
L25.0119 15.6149
" />
<path d="M25.0119 15.6149
L25.0881 15.6530
" />
<path d="M25.0881 15.6530
L25.1262 15.6911
" />
<path d="M25.1262 15.6911
L25.1643 15.7673
" />
<path d="M25.1643 15.7673
L25.2024 15.9197
" />
<path d="M25.2024 15.9197
L25.2024 16.1101
" />
<path d="M25.2024 16.1101
L25.1643 16.2625
" />
<path d="M25.1643 16.2625
L25.1262 16.3387
" />
<path d="M25.1262 16.3387
L25.0881 16.3768
" />
<path d="M25.0881 16.3768
L25.0119 16.4149
" />
<path d="M25.0119 16.4149
L24.9357 16.4149
" />
<path d="M24.9357 16.4149
L24.8595 16.3768
" />
<path d="M24.8595 16.3768
L24.8214 16.3387
" />
<path d="M24.8214 16.3387
L24.7833 16.2625
" />
<path d="M24.7833 16.2625
L24.7452 16.1101
" />
<path d="M24.7452 16.1101
L24.7452 15.9197
" />
<path d="M24.7452 15.9197
L24.7833 15.7673
" />
<path d="M24.7833 15.7673
L24.8214 15.6911
" />
<path d="M24.8214 15.6911
L24.8595 15.6530
" />
<path d="M24.8595 15.6530
L24.9357 15.6149
" />
</g><circle cx="23.0500" cy="12.0500" r="0.3000" /> 
<circle cx="23.0500" cy="20.0500" r="0.3000" /> 
<circle cx="20.0500" cy="16.0500" r="0.3000" /> 
<circle cx="26.0500" cy="16.0500" r="0.3000" /> 
</g>
<g style="fill:none; 
stroke:#D0D2CD; stroke-width:0.1000; stroke-opacity:1; 
stroke-linecap:round; stroke-linejoin:round;">
<path d="M0.0500 0.0500
L60.0500 0.0500
" />
<path d="M60.0500 0.0500
L60.0500 40.0500
" />
<path d="M60.0500 40.0500
L0.0500 40.0500
" />
<path d="M0.0500 40.0500
L0.0500 0.0500
" />
</g> 
</svg>
