<?xml version="1.0" standalone="no"?>
 <!DOCTYPE svg PUBLIC "-//W3C//DTD SVG 1.1//EN" 
 "http://www.w3.org/Graphics/SVG/1.1/DTD/svg11.dtd"> 
<svg
  xmlns:svg="http://www.w3.org/2000/svg"
  xmlns="http://www.w3.org/2000/svg"
  xmlns:xlink="http://www.w3.org/1999/xlink"
  version="1.1"
  width="60.0964mm" height="40.0812mm" viewBox="0.0000 0.0000 60.0964 40.0812">
<title>SVG Image created as kicad_front_180.svg date 2026/03/20 21:27:51 </title>
  <desc>Image generated by PCBNEW </desc>
<g style="fill:#000000; fill-opacity:1.0000;stroke:#000000; stroke-opacity:1.0000;
stroke-linecap:round; stroke-linejoin:round;"
 transform="translate(0 0) scale(1 1)">
<path style="fill:none; 
stroke:#AFAFAF; stroke-width:0.1500; stroke-opacity:1; 
stroke-linecap:round; stroke-linejoin:round;fill:none"
d="M 20.0500,12.0500
26.0500,12.0500
26.0500,20.0500
20.0500,20.0500
Z" /> 
<path style="fill:none; 
stroke:#AFAFAF; stroke-width:0.1500; stroke-opacity:1; 
stroke-linecap:round; stroke-linejoin:round;fill:none"
d="M 24.1830,24.9330
27.1830,24.9330
27.1830,26.4330
24.1830,26.4330
Z" /> 
<path style="fill:none; 
stroke:#AFAFAF; stroke-width:0.1500; stroke-opacity:1; 
stroke-linecap:round; stroke-linejoin:round;fill:none"
d="M 38.6060,24.9330
41.6060,24.9330
41.6060,26.4330
38.6060,26.4330
Z" /> 
<path style="fill:none; 
stroke:#AFAFAF; stroke-width:0.1500; stroke-opacity:1; 
stroke-linecap:round; stroke-linejoin:round;fill:none"
d="M 38.6060,10.5110
41.6060,10.5110
41.6060,12.0110
38.6060,12.0110
Z" /> 
<path style="fill:none; 
stroke:#585D84; stroke-width:0.1500; stroke-opacity:1; 
stroke-linecap:round; stroke-linejoin:round;fill:none"
d="M 24.1830,10.5110
27.1830,10.5110
27.1830,12.0110
24.1830,12.0110
Z" /> 
</g>
<g style="fill:none; 
stroke:#F2EDA1; stroke-width:0.1000; stroke-opacity:1; 
stroke-linecap:round; stroke-linejoin:round;">
<text x="23.0500" y="16.4500"
textLength="6.1590" font-size="1.0667" lengthAdjust="spacingAndGlyphs"
text-anchor="middle" opacity="0" stroke-opacity="0">ic1 F 180</text>
<g class="stroked-text"><desc>ic1 F 180</desc>
<path d="M20.2310 16.4149
L20.2310 15.8816
" />
<path d="M20.2310 15.6149
L20.1929 15.6530
" />
<path d="M20.1929 15.6530
L20.2310 15.6911
" />
<path d="M20.2310 15.6911
L20.2690 15.6530
" />
<path d="M20.2690 15.6530
L20.2310 15.6149
" />
<path d="M20.2310 15.6149
L20.2310 15.6911
" />
<path d="M20.9548 16.3768
L20.8786 16.4149
" />
<path d="M20.8786 16.4149
L20.7262 16.4149
" />
<path d="M20.7262 16.4149
L20.6500 16.3768
" />
<path d="M20.6500 16.3768
L20.6119 16.3387
" />
<path d="M20.6119 16.3387
L20.5738 16.2625
" />
<path d="M20.5738 16.2625
L20.5738 16.0339
" />
<path d="M20.5738 16.0339
L20.6119 15.9578
" />
<path d="M20.6119 15.9578
L20.6500 15.9197
" />
<path d="M20.6500 15.9197
L20.7262 15.8816
" />
<path d="M20.7262 15.8816
L20.8786 15.8816
" />
<path d="M20.8786 15.8816
L20.9548 15.9197
" />
<path d="M21.7167 16.4149
L21.2595 16.4149
" />
<path d="M21.4881 16.4149
L21.4881 15.6149
" />
<path d="M21.4881 15.6149
L21.4119 15.7292
" />
<path d="M21.4119 15.7292
L21.3357 15.8054
" />
<path d="M21.3357 15.8054
L21.2595 15.8435
" />
<path d="M22.9357 15.9958
L22.6690 15.9958
" />
<path d="M22.6690 16.4149
L22.6690 15.6149
" />
<path d="M22.6690 15.6149
L23.0500 15.6149
" />
<path d="M24.3833 16.4149
L23.9262 16.4149
" />
<path d="M24.1548 16.4149
L24.1548 15.6149
" />
<path d="M24.1548 15.6149
L24.0786 15.7292
" />
<path d="M24.0786 15.7292
L24.0024 15.8054
" />
<path d="M24.0024 15.8054
L23.9262 15.8435
" />
<path d="M24.8405 15.9578
L24.7643 15.9197
" />
<path d="M24.7643 15.9197
L24.7262 15.8816
" />
<path d="M24.7262 15.8816
L24.6881 15.8054
" />
<path d="M24.6881 15.8054
L24.6881 15.7673
" />
<path d="M24.6881 15.7673
L24.7262 15.6911
" />
<path d="M24.7262 15.6911
L24.7643 15.6530
" />
<path d="M24.7643 15.6530
L24.8405 15.6149
" />
<path d="M24.8405 15.6149
L24.9929 15.6149
" />
<path d="M24.9929 15.6149
L25.0690 15.6530
" />
<path d="M25.0690 15.6530
L25.1071 15.6911
" />
<path d="M25.1071 15.6911
L25.1452 15.7673
" />
<path d="M25.1452 15.7673
L25.1452 15.8054
" />
<path d="M25.1452 15.8054
L25.1071 15.8816
" />
<path d="M25.1071 15.8816
L25.0690 15.9197
" />
<path d="M25.0690 15.9197
L24.9929 15.9578
" />
<path d="M24.9929 15.9578
L24.8405 15.9578
" />
<path d="M24.8405 15.9578
L24.7643 15.9958
" />
<path d="M24.7643 15.9958
L24.7262 16.0339
" />
<path d="M24.7262 16.0339
L24.6881 16.1101
" />
<path d="M24.6881 16.1101
L24.6881 16.2625
" />
<path d="M24.6881 16.2625
L24.7262 16.3387
" />
<path d="M24.7262 16.3387
L24.7643 16.3768
" />
<path d="M24.7643 16.3768
L24.8405 16.4149
" />
<path d="M24.8405 16.4149
L24.9929 16.4149
" />
<path d="M24.9929 16.4149
L25.0690 16.3768
" />
<path d="M25.0690 16.3768
L25.1071 16.3387
" />
<path d="M25.1071 16.3387
L25.1452 16.2625
" />
<path d="M25.1452 16.2625
L25.1452 16.1101
" />
<path d="M25.1452 16.1101
L25.1071 16.0339
" />
<path d="M25.1071 16.0339
L25.0690 15.9958
" />
<path d="M25.0690 15.9958
L24.9929 15.9578
" />
<path d="M25.6405 15.6149
L25.7167 15.6149
" />
<path d="M25.7167 15.6149
L25.7929 15.6530
" />
<path d="M25.7929 15.6530
L25.8310 15.6911
" />
<path d="M25.8310 15.6911
L25.8690 15.7673
" />
<path d="M25.8690 15.7673
L25.9071 15.9197
" />
<path d="M25.9071 15.9197
L25.9071 16.1101
" />
<path d="M25.9071 16.1101
L25.8690 16.2625
" />
<path d="M25.8690 16.2625
L25.8310 16.3387
" />
<path d="M25.8310 16.3387
L25.7929 16.3768
" />
<path d="M25.7929 16.3768
L25.7167 16.4149
" />
<path d="M25.7167 16.4149
L25.6405 16.4149
" />
<path d="M25.6405 16.4149
L25.5643 16.3768
" />
<path d="M25.5643 16.3768
L25.5262 16.3387
" />
<path d="M25.5262 16.3387
L25.4881 16.2625
" />
<path d="M25.4881 16.2625
L25.4500 16.1101
" />
<path d="M25.4500 16.1101
L25.4500 15.9197
" />
<path d="M25.4500 15.9197
L25.4881 15.7673
" />
<path d="M25.4881 15.7673
L25.5262 15.6911
" />
<path d="M25.5262 15.6911
L25.5643 15.6530
" />
<path d="M25.5643 15.6530
L25.6405 15.6149
" />
</g><circle cx="23.0500" cy="20.0500" r="0.3000" /> 
<circle cx="23.0500" cy="12.0500" r="0.3000" /> 
<circle cx="20.0500" cy="16.0500" r="0.3000" /> 
<circle cx="26.0500" cy="16.0500" r="0.3000" /> 
<text x="25.6830" y="26.0830"
textLength="7.0352" font-size="1.0667" lengthAdjust="spacingAndGlyphs"
text-anchor="middle" opacity="0" stroke-opacity="0">r_north F 0</text>
<g class="stroked-text"><desc>r_north F 0</desc>
<path d="M22.4259 26.0479
L22.4259 25.5146
" />
<path d="M22.4259 25.6669
L22.4640 25.5908
" />
<path d="M22.4640 25.5908
L22.5020 25.5527
" />
<path d="M22.5020 25.5527
L22.5782 25.5146
" />
<path d="M22.5782 25.5146
L22.6544 25.5146
" />
<path d="M22.7306 26.1241
L23.3401 26.1241
" />
<path d="M23.5306 25.5146
L23.5306 26.0479
" />
<path d="M23.5306 25.5908
L23.5687 25.5527
" />
<path d="M23.5687 25.5527
L23.6449 25.5146
" />
<path d="M23.6449 25.5146
L23.7592 25.5146
" />
<path d="M23.7592 25.5146
L23.8354 25.5527
" />
<path d="M23.8354 25.5527
L23.8735 25.6288
" />
<path d="M23.8735 25.6288
L23.8735 26.0479
" />
<path d="M24.3687 26.0479
L24.2925 26.0098
" />
<path d="M24.2925 26.0098
L24.2544 25.9717
" />
<path d="M24.2544 25.9717
L24.2163 25.8955
" />
<path d="M24.2163 25.8955
L24.2163 25.6669
" />
<path d="M24.2163 25.6669
L24.2544 25.5908
" />
<path d="M24.2544 25.5908
L24.2925 25.5527
" />
<path d="M24.2925 25.5527
L24.3687 25.5146
" />
<path d="M24.3687 25.5146
L24.4830 25.5146
" />
<path d="M24.4830 25.5146
L24.5592 25.5527
" />
<path d="M24.5592 25.5527
L24.5973 25.5908
" />
<path d="M24.5973 25.5908
L24.6354 25.6669
" />
<path d="M24.6354 25.6669
L24.6354 25.8955
" />
<path d="M24.6354 25.8955
L24.5973 25.9717
" />
<path d="M24.5973 25.9717
L24.5592 26.0098
" />
<path d="M24.5592 26.0098
L24.4830 26.0479
" />
<path d="M24.4830 26.0479
L24.3687 26.0479
" />
<path d="M24.9782 26.0479
L24.9782 25.5146
" />
<path d="M24.9782 25.6669
L25.0163 25.5908
" />
<path d="M25.0163 25.5908
L25.0544 25.5527
" />
<path d="M25.0544 25.5527
L25.1306 25.5146
" />
<path d="M25.1306 25.5146
L25.2068 25.5146
" />
<path d="M25.3592 25.5146
L25.6640 25.5146
" />
<path d="M25.4735 25.2479
L25.4735 25.9336
" />
<path d="M25.4735 25.9336
L25.5116 26.0098
" />
<path d="M25.5116 26.0098
L25.5878 26.0479
" />
<path d="M25.5878 26.0479
L25.6640 26.0479
" />
<path d="M25.9306 26.0479
L25.9306 25.2479
" />
<path d="M26.2735 26.0479
L26.2735 25.6288
" />
<path d="M26.2735 25.6288
L26.2354 25.5527
" />
<path d="M26.2354 25.5527
L26.1592 25.5146
" />
<path d="M26.1592 25.5146
L26.0449 25.5146
" />
<path d="M26.0449 25.5146
L25.9687 25.5527
" />
<path d="M25.9687 25.5527
L25.9306 25.5908
" />
<path d="M27.5306 25.6288
L27.2640 25.6288
" />
<path d="M27.2640 26.0479
L27.2640 25.2479
" />
<path d="M27.2640 25.2479
L27.6449 25.2479
" />
<path d="M28.7116 25.2479
L28.7878 25.2479
" />
<path d="M28.7878 25.2479
L28.8640 25.2860
" />
<path d="M28.8640 25.2860
L28.9020 25.3241
" />
<path d="M28.9020 25.3241
L28.9401 25.4003
" />
<path d="M28.9401 25.4003
L28.9782 25.5527
" />
<path d="M28.9782 25.5527
L28.9782 25.7431
" />
<path d="M28.9782 25.7431
L28.9401 25.8955
" />
<path d="M28.9401 25.8955
L28.9020 25.9717
" />
<path d="M28.9020 25.9717
L28.8640 26.0098
" />
<path d="M28.8640 26.0098
L28.7878 26.0479
" />
<path d="M28.7878 26.0479
L28.7116 26.0479
" />
<path d="M28.7116 26.0479
L28.6354 26.0098
" />
<path d="M28.6354 26.0098
L28.5973 25.9717
" />
<path d="M28.5973 25.9717
L28.5592 25.8955
" />
<path d="M28.5592 25.8955
L28.5211 25.7431
" />
<path d="M28.5211 25.7431
L28.5211 25.5527
" />
<path d="M28.5211 25.5527
L28.5592 25.4003
" />
<path d="M28.5592 25.4003
L28.5973 25.3241
" />
<path d="M28.5973 25.3241
L28.6354 25.2860
" />
<path d="M28.6354 25.2860
L28.7116 25.2479
" />
</g><circle cx="24.1830" cy="25.6830" r="0.3000" /> 
<circle cx="27.1830" cy="25.6830" r="0.3000" /> 
<text x="40.1060" y="26.0830"
textLength="7.1876" font-size="1.0667" lengthAdjust="spacingAndGlyphs"
text-anchor="middle" opacity="0" stroke-opacity="0">r_south F 0</text>
<g class="stroked-text"><desc>r_south F 0</desc>
<path d="M36.7727 26.0479
L36.7727 25.5146
" />
<path d="M36.7727 25.6669
L36.8108 25.5908
" />
<path d="M36.8108 25.5908
L36.8489 25.5527
" />
<path d="M36.8489 25.5527
L36.9250 25.5146
" />
<path d="M36.9250 25.5146
L37.0012 25.5146
" />
<path d="M37.0774 26.1241
L37.6870 26.1241
" />
<path d="M37.8393 26.0098
L37.9155 26.0479
" />
<path d="M37.9155 26.0479
L38.0679 26.0479
" />
<path d="M38.0679 26.0479
L38.1441 26.0098
" />
<path d="M38.1441 26.0098
L38.1822 25.9336
" />
<path d="M38.1822 25.9336
L38.1822 25.8955
" />
<path d="M38.1822 25.8955
L38.1441 25.8193
" />
<path d="M38.1441 25.8193
L38.0679 25.7812
" />
<path d="M38.0679 25.7812
L37.9536 25.7812
" />
<path d="M37.9536 25.7812
L37.8774 25.7431
" />
<path d="M37.8774 25.7431
L37.8393 25.6669
" />
<path d="M37.8393 25.6669
L37.8393 25.6288
" />
<path d="M37.8393 25.6288
L37.8774 25.5527
" />
<path d="M37.8774 25.5527
L37.9536 25.5146
" />
<path d="M37.9536 25.5146
L38.0679 25.5146
" />
<path d="M38.0679 25.5146
L38.1441 25.5527
" />
<path d="M38.6393 26.0479
L38.5631 26.0098
" />
<path d="M38.5631 26.0098
L38.5250 25.9717
" />
<path d="M38.5250 25.9717
L38.4870 25.8955
" />
<path d="M38.4870 25.8955
L38.4870 25.6669
" />
<path d="M38.4870 25.6669
L38.5250 25.5908
" />
<path d="M38.5250 25.5908
L38.5631 25.5527
" />
<path d="M38.5631 25.5527
L38.6393 25.5146
" />
<path d="M38.6393 25.5146
L38.7536 25.5146
" />
<path d="M38.7536 25.5146
L38.8298 25.5527
" />
<path d="M38.8298 25.5527
L38.8679 25.5908
" />
<path d="M38.8679 25.5908
L38.9060 25.6669
" />
<path d="M38.9060 25.6669
L38.9060 25.8955
" />
<path d="M38.9060 25.8955
L38.8679 25.9717
" />
<path d="M38.8679 25.9717
L38.8298 26.0098
" />
<path d="M38.8298 26.0098
L38.7536 26.0479
" />
<path d="M38.7536 26.0479
L38.6393 26.0479
" />
<path d="M39.5917 25.5146
L39.5917 26.0479
" />
<path d="M39.2489 25.5146
L39.2489 25.9336
" />
<path d="M39.2489 25.9336
L39.2870 26.0098
" />
<path d="M39.2870 26.0098
L39.3631 26.0479
" />
<path d="M39.3631 26.0479
L39.4774 26.0479
" />
<path d="M39.4774 26.0479
L39.5536 26.0098
" />
<path d="M39.5536 26.0098
L39.5917 25.9717
" />
<path d="M39.8584 25.5146
L40.1631 25.5146
" />
<path d="M39.9727 25.2479
L39.9727 25.9336
" />
<path d="M39.9727 25.9336
L40.0108 26.0098
" />
<path d="M40.0108 26.0098
L40.0870 26.0479
" />
<path d="M40.0870 26.0479
L40.1631 26.0479
" />
<path d="M40.4298 26.0479
L40.4298 25.2479
" />
<path d="M40.7727 26.0479
L40.7727 25.6288
" />
<path d="M40.7727 25.6288
L40.7346 25.5527
" />
<path d="M40.7346 25.5527
L40.6584 25.5146
" />
<path d="M40.6584 25.5146
L40.5441 25.5146
" />
<path d="M40.5441 25.5146
L40.4679 25.5527
" />
<path d="M40.4679 25.5527
L40.4298 25.5908
" />
<path d="M42.0298 25.6288
L41.7631 25.6288
" />
<path d="M41.7631 26.0479
L41.7631 25.2479
" />
<path d="M41.7631 25.2479
L42.1441 25.2479
" />
<path d="M43.2108 25.2479
L43.2870 25.2479
" />
<path d="M43.2870 25.2479
L43.3631 25.2860
" />
<path d="M43.3631 25.2860
L43.4012 25.3241
" />
<path d="M43.4012 25.3241
L43.4393 25.4003
" />
<path d="M43.4393 25.4003
L43.4774 25.5527
" />
<path d="M43.4774 25.5527
L43.4774 25.7431
" />
<path d="M43.4774 25.7431
L43.4393 25.8955
" />
<path d="M43.4393 25.8955
L43.4012 25.9717
" />
<path d="M43.4012 25.9717
L43.3631 26.0098
" />
<path d="M43.3631 26.0098
L43.2870 26.0479
" />
<path d="M43.2870 26.0479
L43.2108 26.0479
" />
<path d="M43.2108 26.0479
L43.1346 26.0098
" />
<path d="M43.1346 26.0098
L43.0965 25.9717
" />
<path d="M43.0965 25.9717
L43.0584 25.8955
" />
<path d="M43.0584 25.8955
L43.0203 25.7431
" />
<path d="M43.0203 25.7431
L43.0203 25.5527
" />
<path d="M43.0203 25.5527
L43.0584 25.4003
" />
<path d="M43.0584 25.4003
L43.0965 25.3241
" />
<path d="M43.0965 25.3241
L43.1346 25.2860
" />
<path d="M43.1346 25.2860
L43.2108 25.2479
" />
</g><circle cx="38.6060" cy="25.6830" r="0.3000" /> 
<circle cx="41.6060" cy="25.6830" r="0.3000" /> 
<text x="40.1060" y="11.6610"
textLength="6.5400" font-size="1.0667" lengthAdjust="spacingAndGlyphs"
text-anchor="middle" opacity="0" stroke-opacity="0">r_west F 0</text>
<g class="stroked-text"><desc>r_west F 0</desc>
<path d="M37.0965 11.6259
L37.0965 11.0926
" />
<path d="M37.0965 11.2449
L37.1346 11.1688
" />
<path d="M37.1346 11.1688
L37.1727 11.1307
" />
<path d="M37.1727 11.1307
L37.2489 11.0926
" />
<path d="M37.2489 11.0926
L37.3250 11.0926
" />
<path d="M37.4012 11.7021
L38.0108 11.7021
" />
<path d="M38.1250 11.0926
L38.2774 11.6259
" />
<path d="M38.2774 11.6259
L38.4298 11.2449
" />
<path d="M38.4298 11.2449
L38.5822 11.6259
" />
<path d="M38.5822 11.6259
L38.7346 11.0926
" />
<path d="M39.3441 11.5878
L39.2679 11.6259
" />
<path d="M39.2679 11.6259
L39.1155 11.6259
" />
<path d="M39.1155 11.6259
L39.0393 11.5878
" />
<path d="M39.0393 11.5878
L39.0012 11.5116
" />
<path d="M39.0012 11.5116
L39.0012 11.2068
" />
<path d="M39.0012 11.2068
L39.0393 11.1307
" />
<path d="M39.0393 11.1307
L39.1155 11.0926
" />
<path d="M39.1155 11.0926
L39.2679 11.0926
" />
<path d="M39.2679 11.0926
L39.3441 11.1307
" />
<path d="M39.3441 11.1307
L39.3822 11.2068
" />
<path d="M39.3822 11.2068
L39.3822 11.2830
" />
<path d="M39.3822 11.2830
L39.0012 11.3592
" />
<path d="M39.6870 11.5878
L39.7631 11.6259
" />
<path d="M39.7631 11.6259
L39.9155 11.6259
" />
<path d="M39.9155 11.6259
L39.9917 11.5878
" />
<path d="M39.9917 11.5878
L40.0298 11.5116
" />
<path d="M40.0298 11.5116
L40.0298 11.4735
" />
<path d="M40.0298 11.4735
L39.9917 11.3973
" />
<path d="M39.9917 11.3973
L39.9155 11.3592
" />
<path d="M39.9155 11.3592
L39.8012 11.3592
" />
<path d="M39.8012 11.3592
L39.7250 11.3211
" />
<path d="M39.7250 11.3211
L39.6870 11.2449
" />
<path d="M39.6870 11.2449
L39.6870 11.2068
" />
<path d="M39.6870 11.2068
L39.7250 11.1307
" />
<path d="M39.7250 11.1307
L39.8012 11.0926
" />
<path d="M39.8012 11.0926
L39.9155 11.0926
" />
<path d="M39.9155 11.0926
L39.9917 11.1307
" />
<path d="M40.2584 11.0926
L40.5631 11.0926
" />
<path d="M40.3727 10.8259
L40.3727 11.5116
" />
<path d="M40.3727 11.5116
L40.4108 11.5878
" />
<path d="M40.4108 11.5878
L40.4870 11.6259
" />
<path d="M40.4870 11.6259
L40.5631 11.6259
" />
<path d="M41.7060 11.2068
L41.4393 11.2068
" />
<path d="M41.4393 11.6259
L41.4393 10.8259
" />
<path d="M41.4393 10.8259
L41.8203 10.8259
" />
<path d="M42.8870 10.8259
L42.9631 10.8259
" />
<path d="M42.9631 10.8259
L43.0393 10.8640
" />
<path d="M43.0393 10.8640
L43.0774 10.9021
" />
<path d="M43.0774 10.9021
L43.1155 10.9783
" />
<path d="M43.1155 10.9783
L43.1536 11.1307
" />
<path d="M43.1536 11.1307
L43.1536 11.3211
" />
<path d="M43.1536 11.3211
L43.1155 11.4735
" />
<path d="M43.1155 11.4735
L43.0774 11.5497
" />
<path d="M43.0774 11.5497
L43.0393 11.5878
" />
<path d="M43.0393 11.5878
L42.9631 11.6259
" />
<path d="M42.9631 11.6259
L42.8870 11.6259
" />
<path d="M42.8870 11.6259
L42.8108 11.5878
" />
<path d="M42.8108 11.5878
L42.7727 11.5497
" />
<path d="M42.7727 11.5497
L42.7346 11.4735
" />
<path d="M42.7346 11.4735
L42.6965 11.3211
" />
<path d="M42.6965 11.3211
L42.6965 11.1307
" />
<path d="M42.6965 11.1307
L42.7346 10.9783
" />
<path d="M42.7346 10.9783
L42.7727 10.9021
" />
<path d="M42.7727 10.9021
L42.8108 10.8640
" />
<path d="M42.8108 10.8640
L42.8870 10.8259
" />
</g><circle cx="38.6060" cy="11.2610" r="0.3000" /> 
<circle cx="41.6060" cy="11.2610" r="0.3000" /> 
</g>
<g style="fill:none; 
stroke:#E8B2A7; stroke-width:0.1000; stroke-opacity:1; 
stroke-linecap:round; stroke-linejoin:round;">
<text x="25.6830" y="11.6610"
textLength="6.5400" font-size="1.0667" lengthAdjust="spacingAndGlyphs"
text-anchor="middle" opacity="0" stroke-opacity="0">r_east B 0</text>
<g class="stroked-text"><desc>r_east B 0</desc>
<path d="M22.6735 11.6259
L22.6735 11.0926
" />
<path d="M22.6735 11.2449
L22.7116 11.1688
" />
<path d="M22.7116 11.1688
L22.7497 11.1307
" />
<path d="M22.7497 11.1307
L22.8259 11.0926
" />
<path d="M22.8259 11.0926
L22.9020 11.0926
" />
<path d="M22.9782 11.7021
L23.5878 11.7021
" />
<path d="M24.0830 11.5878
L24.0068 11.6259
" />
<path d="M24.0068 11.6259
L23.8544 11.6259
" />
<path d="M23.8544 11.6259
L23.7782 11.5878
" />
<path d="M23.7782 11.5878
L23.7401 11.5116
" />
<path d="M23.7401 11.5116
L23.7401 11.2068
" />
<path d="M23.7401 11.2068
L23.7782 11.1307
" />
<path d="M23.7782 11.1307
L23.8544 11.0926
" />
<path d="M23.8544 11.0926
L24.0068 11.0926
" />
<path d="M24.0068 11.0926
L24.0830 11.1307
" />
<path d="M24.0830 11.1307
L24.1211 11.2068
" />
<path d="M24.1211 11.2068
L24.1211 11.2830
" />
<path d="M24.1211 11.2830
L23.7401 11.3592
" />
<path d="M24.8068 11.6259
L24.8068 11.2068
" />
<path d="M24.8068 11.2068
L24.7687 11.1307
" />
<path d="M24.7687 11.1307
L24.6925 11.0926
" />
<path d="M24.6925 11.0926
L24.5401 11.0926
" />
<path d="M24.5401 11.0926
L24.4640 11.1307
" />
<path d="M24.8068 11.5878
L24.7306 11.6259
" />
<path d="M24.7306 11.6259
L24.5401 11.6259
" />
<path d="M24.5401 11.6259
L24.4640 11.5878
" />
<path d="M24.4640 11.5878
L24.4259 11.5116
" />
<path d="M24.4259 11.5116
L24.4259 11.4354
" />
<path d="M24.4259 11.4354
L24.4640 11.3592
" />
<path d="M24.4640 11.3592
L24.5401 11.3211
" />
<path d="M24.5401 11.3211
L24.7306 11.3211
" />
<path d="M24.7306 11.3211
L24.8068 11.2830
" />
<path d="M25.1497 11.5878
L25.2259 11.6259
" />
<path d="M25.2259 11.6259
L25.3782 11.6259
" />
<path d="M25.3782 11.6259
L25.4544 11.5878
" />
<path d="M25.4544 11.5878
L25.4925 11.5116
" />
<path d="M25.4925 11.5116
L25.4925 11.4735
" />
<path d="M25.4925 11.4735
L25.4544 11.3973
" />
<path d="M25.4544 11.3973
L25.3782 11.3592
" />
<path d="M25.3782 11.3592
L25.2640 11.3592
" />
<path d="M25.2640 11.3592
L25.1878 11.3211
" />
<path d="M25.1878 11.3211
L25.1497 11.2449
" />
<path d="M25.1497 11.2449
L25.1497 11.2068
" />
<path d="M25.1497 11.2068
L25.1878 11.1307
" />
<path d="M25.1878 11.1307
L25.2640 11.0926
" />
<path d="M25.2640 11.0926
L25.3782 11.0926
" />
<path d="M25.3782 11.0926
L25.4544 11.1307
" />
<path d="M25.7211 11.0926
L26.0259 11.0926
" />
<path d="M25.8354 10.8259
L25.8354 11.5116
" />
<path d="M25.8354 11.5116
L25.8735 11.5878
" />
<path d="M25.8735 11.5878
L25.9497 11.6259
" />
<path d="M25.9497 11.6259
L26.0259 11.6259
" />
<path d="M27.1687 11.2068
L27.2830 11.2449
" />
<path d="M27.2830 11.2449
L27.3211 11.2830
" />
<path d="M27.3211 11.2830
L27.3592 11.3592
" />
<path d="M27.3592 11.3592
L27.3592 11.4735
" />
<path d="M27.3592 11.4735
L27.3211 11.5497
" />
<path d="M27.3211 11.5497
L27.2830 11.5878
" />
<path d="M27.2830 11.5878
L27.2068 11.6259
" />
<path d="M27.2068 11.6259
L26.9020 11.6259
" />
<path d="M26.9020 11.6259
L26.9020 10.8259
" />
<path d="M26.9020 10.8259
L27.1687 10.8259
" />
<path d="M27.1687 10.8259
L27.2449 10.8640
" />
<path d="M27.2449 10.8640
L27.2830 10.9021
" />
<path d="M27.2830 10.9021
L27.3211 10.9783
" />
<path d="M27.3211 10.9783
L27.3211 11.0545
" />
<path d="M27.3211 11.0545
L27.2830 11.1307
" />
<path d="M27.2830 11.1307
L27.2449 11.1688
" />
<path d="M27.2449 11.1688
L27.1687 11.2068
" />
<path d="M27.1687 11.2068
L26.9020 11.2068
" />
<path d="M28.4640 10.8259
L28.5401 10.8259
" />
<path d="M28.5401 10.8259
L28.6163 10.8640
" />
<path d="M28.6163 10.8640
L28.6544 10.9021
" />
<path d="M28.6544 10.9021
L28.6925 10.9783
" />
<path d="M28.6925 10.9783
L28.7306 11.1307
" />
<path d="M28.7306 11.1307
L28.7306 11.3211
" />
<path d="M28.7306 11.3211
L28.6925 11.4735
" />
<path d="M28.6925 11.4735
L28.6544 11.5497
" />
<path d="M28.6544 11.5497
L28.6163 11.5878
" />
<path d="M28.6163 11.5878
L28.5401 11.6259
" />
<path d="M28.5401 11.6259
L28.4640 11.6259
" />
<path d="M28.4640 11.6259
L28.3878 11.5878
" />
<path d="M28.3878 11.5878
L28.3497 11.5497
" />
<path d="M28.3497 11.5497
L28.3116 11.4735
" />
<path d="M28.3116 11.4735
L28.2735 11.3211
" />
<path d="M28.2735 11.3211
L28.2735 11.1307
" />
<path d="M28.2735 11.1307
L28.3116 10.9783
" />
<path d="M28.3116 10.9783
L28.3497 10.9021
" />
<path d="M28.3497 10.9021
L28.3878 10.8640
" />
<path d="M28.3878 10.8640
L28.4640 10.8259
" />
</g><circle cx="27.1830" cy="11.2610" r="0.3000" /> 
<circle cx="24.1830" cy="11.2610" r="0.3000" /> 
</g>
<g style="fill:none; 
stroke:#D0D2CD; stroke-width:0.1000; stroke-opacity:1; 
stroke-linecap:round; stroke-linejoin:round;">
<path d="M0.0500 0.0500
L60.0500 0.0500
" />
<path d="M60.0500 0.0500
L60.0500 40.0500
" />
<path d="M60.0500 40.0500
L0.0500 40.0500
" />
<path d="M0.0500 40.0500
L0.0500 0.0500
" />
</g> 
</svg>
