M48
; DRILL file {KiCad 9.0.7} date 2026-03-06T04:01:41+0000
; FORMAT={-:-/ absolute / metric / decimal}
; #@! TF.CreationDate,2026-03-06T04:01:41+00:00
; #@! TF.GenerationSoftware,Kicad,Pcbnew,9.0.7
; #@! TF.FileFunction,MixedPlating,1,2
FMAT,2
METRIC
; #@! TA.AperFunction,Plated,PTH,ComponentDrill
T1C0.900
; #@! TA.AperFunction,Plated,PTH,ComponentDrill
T2C1.000
; #@! TA.AperFunction,NonPlated,NPTH,ComponentDrill
T3C1.500
; #@! TA.AperFunction,NonPlated,NPTH,ComponentDrill
T4C2.000
%
G90
G05
T1
X4.58Y-10.25
X4.58Y-20.95
X4.58Y-31.65
X4.58Y-42.35
X5.83Y-14.75
X5.83Y-25.45
X5.83Y-36.15
X5.83Y-46.85
X7.33Y-14.75
X7.33Y-25.45
X7.33Y-36.15
X7.33Y-46.85
X8.83Y-14.75
X8.83Y-25.45
X8.83Y-36.15
X8.83Y-46.85
X10.33Y-14.75
X10.33Y-25.45
X10.33Y-36.15
X10.33Y-46.85
X11.08Y-10.25
X11.08Y-20.95
X11.08Y-31.65
X11.08Y-42.35
X15.82Y-88.94
X15.82Y-99.14
X17.07Y-93.44
X17.07Y-103.64
X18.57Y-93.44
X18.57Y-103.64
X20.07Y-93.44
X20.07Y-103.64
X21.57Y-93.44
X21.57Y-103.64
X22.32Y-88.94
X22.32Y-99.14
X26.02Y-88.94
X26.02Y-99.14
X27.27Y-93.44
X27.27Y-103.64
X28.77Y-93.44
X28.77Y-103.64
X30.27Y-93.44
X30.27Y-103.64
X31.77Y-93.44
X31.77Y-103.64
X32.52Y-88.94
X32.52Y-99.14
X36.22Y-88.94
X36.22Y-99.14
X37.47Y-93.44
X37.47Y-103.64
X38.97Y-93.44
X38.97Y-103.64
X40.47Y-93.44
X40.47Y-103.64
X41.97Y-93.44
X41.97Y-103.64
X42.72Y-88.94
X42.72Y-99.14
X46.42Y-88.94
X46.42Y-99.14
X47.67Y-93.44
X47.67Y-103.64
X49.17Y-93.44
X49.17Y-103.64
X50.67Y-93.44
X50.67Y-103.64
X52.17Y-93.44
X52.17Y-103.64
X52.92Y-88.94
X52.92Y-99.14
X56.62Y-88.94
X56.62Y-99.14
X57.87Y-93.44
X57.87Y-103.64
X59.37Y-93.44
X59.37Y-103.64
X60.87Y-93.44
X60.87Y-103.64
X62.37Y-93.44
X62.37Y-103.64
X63.12Y-88.94
X63.12Y-99.14
X66.82Y-88.94
X66.82Y-99.14
X68.07Y-93.44
X68.07Y-103.64
X69.57Y-93.44
X69.57Y-103.64
X71.07Y-93.44
X71.07Y-103.64
X72.57Y-93.44
X72.57Y-103.64
X73.32Y-88.94
X73.32Y-99.14
X77.02Y-88.94
X77.02Y-99.14
X78.27Y-93.44
X78.27Y-103.64
X79.77Y-93.44
X79.77Y-103.64
X81.27Y-93.44
X81.27Y-103.64
X82.77Y-93.44
X82.77Y-103.64
X83.52Y-88.94
X83.52Y-99.14
X87.22Y-88.94
X87.22Y-99.14
X88.47Y-93.44
X88.47Y-103.64
X89.97Y-93.44
X89.97Y-103.64
X91.47Y-93.44
X91.47Y-103.64
X92.97Y-93.44
X92.97Y-103.64
X93.72Y-88.94
X93.72Y-99.14
X98.47Y-10.25
X98.47Y-20.95
X98.47Y-31.65
X98.47Y-42.35
X98.47Y-53.05
X99.72Y-14.75
X99.72Y-25.45
X99.72Y-36.15
X99.72Y-46.85
X99.72Y-57.55
X101.22Y-14.75
X101.22Y-25.45
X101.22Y-36.15
X101.22Y-46.85
X101.22Y-57.55
X102.72Y-14.75
X102.72Y-25.45
X102.72Y-36.15
X102.72Y-46.85
X102.72Y-57.55
X104.22Y-14.75
X104.22Y-25.45
X104.22Y-36.15
X104.22Y-46.85
X104.22Y-57.55
X104.97Y-10.25
X104.97Y-20.95
X104.97Y-31.65
X104.97Y-42.35
X104.97Y-53.05
X108.8Y-10.25
X108.8Y-20.95
X108.8Y-31.65
X108.8Y-42.35
X108.8Y-53.05
X110.05Y-14.75
X110.05Y-25.45
X110.05Y-36.15
X110.05Y-46.85
X110.05Y-57.55
X111.55Y-14.75
X111.55Y-25.45
X111.55Y-36.15
X111.55Y-46.85
X111.55Y-57.55
X113.05Y-14.75
X113.05Y-25.45
X113.05Y-36.15
X113.05Y-46.85
X113.05Y-57.55
X114.55Y-14.75
X114.55Y-25.45
X114.55Y-36.15
X114.55Y-46.85
X114.55Y-57.55
X115.3Y-10.25
X115.3Y-20.95
X115.3Y-31.65
X115.3Y-42.35
X115.3Y-53.05
X132.3Y-12.75
X132.3Y-26.75
X132.3Y-40.75
X133.55Y-17.25
X133.55Y-31.25
X133.55Y-45.25
X135.05Y-17.25
X135.05Y-31.25
X135.05Y-45.25
X136.55Y-17.25
X136.55Y-31.25
X136.55Y-45.25
X138.05Y-17.25
X138.05Y-31.25
X138.05Y-45.25
X138.8Y-12.75
X138.8Y-26.75
X138.8Y-40.75
T2
X8.73Y-114.92
X8.73Y-117.46
X8.73Y-120.0
X8.73Y-122.54
X8.73Y-125.08
X10.08Y-69.36
X10.08Y-83.36
X11.27Y-114.92
X11.27Y-117.46
X11.27Y-120.0
X11.27Y-122.54
X11.27Y-125.08
X12.58Y-83.36
X15.08Y-69.36
X15.08Y-83.36
X54.78Y-66.37
X54.78Y-68.91
X54.78Y-71.45
X54.78Y-73.99
X54.78Y-76.53
X54.78Y-79.07
X54.78Y-81.61
X54.78Y-84.15
X54.78Y-86.69
X104.8Y-69.36
X104.8Y-83.36
X107.3Y-83.36
X109.8Y-69.36
X109.8Y-83.36
X128.55Y-52.3
X128.55Y-57.0
X128.55Y-64.7
X128.55Y-69.4
X128.55Y-77.1
X128.55Y-81.8
X128.55Y-89.5
X128.55Y-94.2
X128.55Y-101.9
X128.55Y-106.6
X133.25Y-54.65
X133.25Y-67.05
X133.25Y-79.45
X133.25Y-91.85
X133.25Y-104.25
X142.55Y-52.3
X142.55Y-57.0
X142.55Y-64.7
X142.55Y-69.4
X142.55Y-77.1
X142.55Y-81.8
X142.55Y-89.5
X142.55Y-94.2
X142.55Y-101.9
X142.55Y-106.6
X147.25Y-54.65
X147.25Y-67.05
X147.25Y-79.45
X147.25Y-91.85
X147.25Y-104.25
X156.55Y-10.3
X156.55Y-15.0
X156.55Y-24.3
X156.55Y-29.0
X156.55Y-38.3
X156.55Y-43.0
X156.55Y-52.3
X156.55Y-57.0
X156.55Y-64.7
X156.55Y-69.4
X156.55Y-77.1
X156.55Y-81.8
X156.55Y-89.5
X156.55Y-94.2
X156.55Y-101.9
X156.55Y-106.6
X161.25Y-12.65
X161.25Y-26.65
X161.25Y-40.65
X161.25Y-54.65
X161.25Y-67.05
X161.25Y-79.45
X161.25Y-91.85
X161.25Y-104.25
X170.55Y-10.3
X170.55Y-15.0
X170.55Y-24.3
X170.55Y-29.0
X170.55Y-38.3
X170.55Y-43.0
X170.55Y-52.3
X170.55Y-57.0
X170.55Y-64.7
X170.55Y-69.4
X170.55Y-77.1
X170.55Y-81.8
X170.55Y-89.5
X170.55Y-94.2
X170.55Y-101.9
X170.55Y-106.6
X175.25Y-12.65
X175.25Y-26.65
X175.25Y-40.65
X175.25Y-54.65
X175.25Y-67.05
X175.25Y-79.45
X175.25Y-91.85
X175.25Y-104.25
T3
X126.2Y-52.3
X126.2Y-64.7
X126.2Y-77.1
X126.2Y-89.5
X126.2Y-101.9
X140.2Y-52.3
X140.2Y-64.7
X140.2Y-77.1
X140.2Y-89.5
X140.2Y-101.9
X154.2Y-10.3
X154.2Y-24.3
X154.2Y-38.3
X154.2Y-52.3
X154.2Y-64.7
X154.2Y-77.1
X154.2Y-89.5
X154.2Y-101.9
X168.2Y-10.3
X168.2Y-24.3
X168.2Y-38.3
X168.2Y-52.3
X168.2Y-64.7
X168.2Y-77.1
X168.2Y-89.5
X168.2Y-101.9
T4
X7.08Y-76.36
X18.08Y-76.36
X101.8Y-76.36
X112.8Y-76.36
M30
