%TF.GenerationSoftware,KiCad,Pcbnew,9.0.7*%
%TF.CreationDate,2026-03-06T04:01:38+00:00*%
%TF.ProjectId,default,64656661-756c-4742-9e6b-696361645f70,rev?*%
%TF.SameCoordinates,Original*%
%TF.FileFunction,Soldermask,Top*%
%TF.FilePolarity,Negative*%
%FSLAX46Y46*%
G04 Gerber Fmt 4.6, Leading zero omitted, Abs format (unit mm)*
G04 Created by KiCad (PCBNEW 9.0.7) date 2026-03-06 04:01:38*
%MOMM*%
%LPD*%
G01*
G04 APERTURE LIST*
%ADD10C,1.600000*%
%ADD11R,1.600000X1.600000*%
%ADD12C,1.500000*%
%ADD13C,2.000000*%
%ADD14R,1.700000X1.700000*%
%ADD15C,1.700000*%
%ADD16C,1.800000*%
G04 APERTURE END LIST*
D10*
%TO.C,REF\u002A\u002A*%
X108800000Y-10250000D03*
X115300000Y-10250000D03*
D11*
X110050000Y-14750000D03*
D10*
X111550000Y-14750000D03*
X113050000Y-14750000D03*
X114550000Y-14750000D03*
%TD*%
%TO.C,REF\u002A\u002A*%
X46420000Y-88940000D03*
X52920000Y-88940000D03*
D11*
X47670000Y-93440000D03*
D10*
X49170000Y-93440000D03*
X50670000Y-93440000D03*
X52170000Y-93440000D03*
%TD*%
D12*
%TO.C,REF\u002A\u002A*%
X168200000Y-101900000D03*
D13*
X170550000Y-106600000D03*
X170550000Y-101900000D03*
X175250000Y-104250000D03*
%TD*%
D10*
%TO.C,REF\u002A\u002A*%
X4580000Y-42350000D03*
X11080000Y-42350000D03*
D11*
X5830000Y-46850000D03*
D10*
X7330000Y-46850000D03*
X8830000Y-46850000D03*
X10330000Y-46850000D03*
%TD*%
%TO.C,REF\u002A\u002A*%
X36220000Y-99140000D03*
X42720000Y-99140000D03*
D11*
X37470000Y-103640000D03*
D10*
X38970000Y-103640000D03*
X40470000Y-103640000D03*
X41970000Y-103640000D03*
%TD*%
%TO.C,REF\u002A\u002A*%
X132300000Y-40750000D03*
X138800000Y-40750000D03*
D11*
X133550000Y-45250000D03*
D10*
X135050000Y-45250000D03*
X136550000Y-45250000D03*
X138050000Y-45250000D03*
%TD*%
%TO.C,REF\u002A\u002A*%
X98470000Y-31650000D03*
X104970000Y-31650000D03*
D11*
X99720000Y-36150000D03*
D10*
X101220000Y-36150000D03*
X102720000Y-36150000D03*
X104220000Y-36150000D03*
%TD*%
D12*
%TO.C,REF\u002A\u002A*%
X140200000Y-77100000D03*
D13*
X142550000Y-81800000D03*
X142550000Y-77100000D03*
X147250000Y-79450000D03*
%TD*%
D12*
%TO.C,REF\u002A\u002A*%
X140200000Y-89500000D03*
D13*
X142550000Y-94200000D03*
X142550000Y-89500000D03*
X147250000Y-91850000D03*
%TD*%
D10*
%TO.C,REF\u002A\u002A*%
X98470000Y-10250000D03*
X104970000Y-10250000D03*
D11*
X99720000Y-14750000D03*
D10*
X101220000Y-14750000D03*
X102720000Y-14750000D03*
X104220000Y-14750000D03*
%TD*%
%TO.C,REF\u002A\u002A*%
X15820000Y-99140000D03*
X22320000Y-99140000D03*
D11*
X17070000Y-103640000D03*
D10*
X18570000Y-103640000D03*
X20070000Y-103640000D03*
X21570000Y-103640000D03*
%TD*%
D12*
%TO.C,REF\u002A\u002A*%
X126200000Y-77100000D03*
D13*
X128550000Y-81800000D03*
X128550000Y-77100000D03*
X133250000Y-79450000D03*
%TD*%
D12*
%TO.C,REF\u002A\u002A*%
X168200000Y-89500000D03*
D13*
X170550000Y-94200000D03*
X170550000Y-89500000D03*
X175250000Y-91850000D03*
%TD*%
D10*
%TO.C,REF\u002A\u002A*%
X98470000Y-42350000D03*
X104970000Y-42350000D03*
D11*
X99720000Y-46850000D03*
D10*
X101220000Y-46850000D03*
X102720000Y-46850000D03*
X104220000Y-46850000D03*
%TD*%
D12*
%TO.C,REF\u002A\u002A*%
X140200000Y-64700000D03*
D13*
X142550000Y-69400000D03*
X142550000Y-64700000D03*
X147250000Y-67050000D03*
%TD*%
D12*
%TO.C,REF\u002A\u002A*%
X154200000Y-10300000D03*
D13*
X156550000Y-15000000D03*
X156550000Y-10300000D03*
X161250000Y-12650000D03*
%TD*%
D10*
%TO.C,REF\u002A\u002A*%
X77020000Y-88940000D03*
X83520000Y-88940000D03*
D11*
X78270000Y-93440000D03*
D10*
X79770000Y-93440000D03*
X81270000Y-93440000D03*
X82770000Y-93440000D03*
%TD*%
%TO.C,REF\u002A\u002A*%
X56620000Y-88940000D03*
X63120000Y-88940000D03*
D11*
X57870000Y-93440000D03*
D10*
X59370000Y-93440000D03*
X60870000Y-93440000D03*
X62370000Y-93440000D03*
%TD*%
%TO.C,REF\u002A\u002A*%
X87220000Y-99140000D03*
X93720000Y-99140000D03*
D11*
X88470000Y-103640000D03*
D10*
X89970000Y-103640000D03*
X91470000Y-103640000D03*
X92970000Y-103640000D03*
%TD*%
D12*
%TO.C,REF\u002A\u002A*%
X154200000Y-52300000D03*
D13*
X156550000Y-57000000D03*
X156550000Y-52300000D03*
X161250000Y-54650000D03*
%TD*%
D12*
%TO.C,REF\u002A\u002A*%
X154200000Y-89500000D03*
D13*
X156550000Y-94200000D03*
X156550000Y-89500000D03*
X161250000Y-91850000D03*
%TD*%
D12*
%TO.C,REF\u002A\u002A*%
X168200000Y-38300000D03*
D13*
X170550000Y-43000000D03*
X170550000Y-38300000D03*
X175250000Y-40650000D03*
%TD*%
D10*
%TO.C,REF\u002A\u002A*%
X77020000Y-99140000D03*
X83520000Y-99140000D03*
D11*
X78270000Y-103640000D03*
D10*
X79770000Y-103640000D03*
X81270000Y-103640000D03*
X82770000Y-103640000D03*
%TD*%
%TO.C,REF\u002A\u002A*%
X26020000Y-88940000D03*
X32520000Y-88940000D03*
D11*
X27270000Y-93440000D03*
D10*
X28770000Y-93440000D03*
X30270000Y-93440000D03*
X31770000Y-93440000D03*
%TD*%
D12*
%TO.C,REF\u002A\u002A*%
X168200000Y-52300000D03*
D13*
X170550000Y-57000000D03*
X170550000Y-52300000D03*
X175250000Y-54650000D03*
%TD*%
D14*
%TO.C,REF\u002A\u002A*%
X54780000Y-66370000D03*
D15*
X54780000Y-68910000D03*
X54780000Y-71450000D03*
X54780000Y-73990000D03*
X54780000Y-76530000D03*
X54780000Y-79070000D03*
X54780000Y-81610000D03*
X54780000Y-84150000D03*
X54780000Y-86690000D03*
%TD*%
D13*
%TO.C,REF\u002A\u002A*%
X7080000Y-76360000D03*
X18080000Y-76360000D03*
D16*
X10080000Y-83360000D03*
X12580000Y-83360000D03*
X15080000Y-83360000D03*
X10080000Y-69360000D03*
X15080000Y-69360000D03*
%TD*%
D12*
%TO.C,REF\u002A\u002A*%
X168200000Y-10300000D03*
D13*
X170550000Y-15000000D03*
X170550000Y-10300000D03*
X175250000Y-12650000D03*
%TD*%
D12*
%TO.C,REF\u002A\u002A*%
X126200000Y-101900000D03*
D13*
X128550000Y-106600000D03*
X128550000Y-101900000D03*
X133250000Y-104250000D03*
%TD*%
D10*
%TO.C,REF\u002A\u002A*%
X4580000Y-20950000D03*
X11080000Y-20950000D03*
D11*
X5830000Y-25450000D03*
D10*
X7330000Y-25450000D03*
X8830000Y-25450000D03*
X10330000Y-25450000D03*
%TD*%
%TO.C,REF\u002A\u002A*%
X108800000Y-53050000D03*
X115300000Y-53050000D03*
D11*
X110050000Y-57550000D03*
D10*
X111550000Y-57550000D03*
X113050000Y-57550000D03*
X114550000Y-57550000D03*
%TD*%
%TO.C,REF\u002A\u002A*%
X4580000Y-10250000D03*
X11080000Y-10250000D03*
D11*
X5830000Y-14750000D03*
D10*
X7330000Y-14750000D03*
X8830000Y-14750000D03*
X10330000Y-14750000D03*
%TD*%
D13*
%TO.C,REF\u002A\u002A*%
X101800000Y-76360000D03*
X112800000Y-76360000D03*
D16*
X104800000Y-83360000D03*
X107300000Y-83360000D03*
X109800000Y-83360000D03*
X104800000Y-69360000D03*
X109800000Y-69360000D03*
%TD*%
D10*
%TO.C,REF\u002A\u002A*%
X108800000Y-42350000D03*
X115300000Y-42350000D03*
D11*
X110050000Y-46850000D03*
D10*
X111550000Y-46850000D03*
X113050000Y-46850000D03*
X114550000Y-46850000D03*
%TD*%
%TO.C,REF\u002A\u002A*%
X15820000Y-88940000D03*
X22320000Y-88940000D03*
D11*
X17070000Y-93440000D03*
D10*
X18570000Y-93440000D03*
X20070000Y-93440000D03*
X21570000Y-93440000D03*
%TD*%
%TO.C,REF\u002A\u002A*%
X66820000Y-88940000D03*
X73320000Y-88940000D03*
D11*
X68070000Y-93440000D03*
D10*
X69570000Y-93440000D03*
X71070000Y-93440000D03*
X72570000Y-93440000D03*
%TD*%
D12*
%TO.C,REF\u002A\u002A*%
X126200000Y-89500000D03*
D13*
X128550000Y-94200000D03*
X128550000Y-89500000D03*
X133250000Y-91850000D03*
%TD*%
D12*
%TO.C,REF\u002A\u002A*%
X168200000Y-64700000D03*
D13*
X170550000Y-69400000D03*
X170550000Y-64700000D03*
X175250000Y-67050000D03*
%TD*%
D12*
%TO.C,REF\u002A\u002A*%
X140200000Y-101900000D03*
D13*
X142550000Y-106600000D03*
X142550000Y-101900000D03*
X147250000Y-104250000D03*
%TD*%
D12*
%TO.C,REF\u002A\u002A*%
X154200000Y-77100000D03*
D13*
X156550000Y-81800000D03*
X156550000Y-77100000D03*
X161250000Y-79450000D03*
%TD*%
D12*
%TO.C,REF\u002A\u002A*%
X140200000Y-52300000D03*
D13*
X142550000Y-57000000D03*
X142550000Y-52300000D03*
X147250000Y-54650000D03*
%TD*%
D10*
%TO.C,REF\u002A\u002A*%
X87220000Y-88940000D03*
X93720000Y-88940000D03*
D11*
X88470000Y-93440000D03*
D10*
X89970000Y-93440000D03*
X91470000Y-93440000D03*
X92970000Y-93440000D03*
%TD*%
D12*
%TO.C,REF\u002A\u002A*%
X154200000Y-24300000D03*
D13*
X156550000Y-29000000D03*
X156550000Y-24300000D03*
X161250000Y-26650000D03*
%TD*%
D12*
%TO.C,REF\u002A\u002A*%
X126200000Y-52300000D03*
D13*
X128550000Y-57000000D03*
X128550000Y-52300000D03*
X133250000Y-54650000D03*
%TD*%
D10*
%TO.C,REF\u002A\u002A*%
X108800000Y-20950000D03*
X115300000Y-20950000D03*
D11*
X110050000Y-25450000D03*
D10*
X111550000Y-25450000D03*
X113050000Y-25450000D03*
X114550000Y-25450000D03*
%TD*%
%TO.C,REF\u002A\u002A*%
X4580000Y-31650000D03*
X11080000Y-31650000D03*
D11*
X5830000Y-36150000D03*
D10*
X7330000Y-36150000D03*
X8830000Y-36150000D03*
X10330000Y-36150000D03*
%TD*%
%TO.C,REF\u002A\u002A*%
X132300000Y-12750000D03*
X138800000Y-12750000D03*
D11*
X133550000Y-17250000D03*
D10*
X135050000Y-17250000D03*
X136550000Y-17250000D03*
X138050000Y-17250000D03*
%TD*%
%TO.C,REF\u002A\u002A*%
X98470000Y-53050000D03*
X104970000Y-53050000D03*
D11*
X99720000Y-57550000D03*
D10*
X101220000Y-57550000D03*
X102720000Y-57550000D03*
X104220000Y-57550000D03*
%TD*%
%TO.C,REF\u002A\u002A*%
X132300000Y-26750000D03*
X138800000Y-26750000D03*
D11*
X133550000Y-31250000D03*
D10*
X135050000Y-31250000D03*
X136550000Y-31250000D03*
X138050000Y-31250000D03*
%TD*%
D14*
%TO.C,REF\u002A\u002A*%
X8730000Y-114920000D03*
D15*
X8730000Y-117460000D03*
X8730000Y-120000000D03*
X8730000Y-122540000D03*
X8730000Y-125080000D03*
X11270000Y-114920000D03*
X11270000Y-117460000D03*
X11270000Y-120000000D03*
X11270000Y-122540000D03*
X11270000Y-125080000D03*
%TD*%
D12*
%TO.C,REF\u002A\u002A*%
X126200000Y-64700000D03*
D13*
X128550000Y-69400000D03*
X128550000Y-64700000D03*
X133250000Y-67050000D03*
%TD*%
D12*
%TO.C,REF\u002A\u002A*%
X168200000Y-77100000D03*
D13*
X170550000Y-81800000D03*
X170550000Y-77100000D03*
X175250000Y-79450000D03*
%TD*%
D10*
%TO.C,REF\u002A\u002A*%
X108800000Y-31650000D03*
X115300000Y-31650000D03*
D11*
X110050000Y-36150000D03*
D10*
X111550000Y-36150000D03*
X113050000Y-36150000D03*
X114550000Y-36150000D03*
%TD*%
%TO.C,REF\u002A\u002A*%
X56620000Y-99140000D03*
X63120000Y-99140000D03*
D11*
X57870000Y-103640000D03*
D10*
X59370000Y-103640000D03*
X60870000Y-103640000D03*
X62370000Y-103640000D03*
%TD*%
%TO.C,REF\u002A\u002A*%
X66820000Y-99140000D03*
X73320000Y-99140000D03*
D11*
X68070000Y-103640000D03*
D10*
X69570000Y-103640000D03*
X71070000Y-103640000D03*
X72570000Y-103640000D03*
%TD*%
D12*
%TO.C,REF\u002A\u002A*%
X154200000Y-101900000D03*
D13*
X156550000Y-106600000D03*
X156550000Y-101900000D03*
X161250000Y-104250000D03*
%TD*%
D10*
%TO.C,REF\u002A\u002A*%
X36220000Y-88940000D03*
X42720000Y-88940000D03*
D11*
X37470000Y-93440000D03*
D10*
X38970000Y-93440000D03*
X40470000Y-93440000D03*
X41970000Y-93440000D03*
%TD*%
D12*
%TO.C,REF\u002A\u002A*%
X154200000Y-64700000D03*
D13*
X156550000Y-69400000D03*
X156550000Y-64700000D03*
X161250000Y-67050000D03*
%TD*%
D10*
%TO.C,REF\u002A\u002A*%
X46420000Y-99140000D03*
X52920000Y-99140000D03*
D11*
X47670000Y-103640000D03*
D10*
X49170000Y-103640000D03*
X50670000Y-103640000D03*
X52170000Y-103640000D03*
%TD*%
D12*
%TO.C,REF\u002A\u002A*%
X154200000Y-38300000D03*
D13*
X156550000Y-43000000D03*
X156550000Y-38300000D03*
X161250000Y-40650000D03*
%TD*%
D10*
%TO.C,REF\u002A\u002A*%
X26020000Y-99140000D03*
X32520000Y-99140000D03*
D11*
X27270000Y-103640000D03*
D10*
X28770000Y-103640000D03*
X30270000Y-103640000D03*
X31770000Y-103640000D03*
%TD*%
D12*
%TO.C,REF\u002A\u002A*%
X168200000Y-24300000D03*
D13*
X170550000Y-29000000D03*
X170550000Y-24300000D03*
X175250000Y-26650000D03*
%TD*%
D10*
%TO.C,REF\u002A\u002A*%
X98470000Y-20950000D03*
X104970000Y-20950000D03*
D11*
X99720000Y-25450000D03*
D10*
X101220000Y-25450000D03*
X102720000Y-25450000D03*
X104220000Y-25450000D03*
%TD*%
M02*
